<svg width="38" height="45" viewBox="0 0 38 45" fill="none" xmlns="http://www.w3.org/2000/svg">
<path d="M26.7764 9.9865C28.83 8.84562 31.1688 6.81486 31.454 4.61297C31.5609 3.76083 31.363 2.89834 30.8953 2.17804C30.4277 1.45773 29.7203 0.92602 28.8984 0.676941C25.4758 -0.8062 22.4867 1.73796 20.9123 3.97408L18.9271 1.97754L17.1132 3.85999C16.3391 2.67917 15.3196 1.67911 14.1241 0.927933C13.4031 0.468994 12.5915 0.171246 11.7448 0.0550685C10.898 -0.0611086 10.0362 0.00702851 9.21829 0.254816C8.41037 0.528909 7.7075 1.04714 7.2068 1.7379C6.7061 2.42867 6.43227 3.25788 6.42314 4.11098C6.5546 5.3258 7.10766 6.45612 7.98614 7.30544C8.91545 8.33348 10.0301 9.17724 11.2719 9.79255L0 21.304C0 21.304 2.14485 23.6542 4.1642 22.1825C4.1642 22.1825 1.88245 31.1726 18.9271 45C35.9376 31.2068 33.6901 22.1825 33.6901 22.1825C35.7094 23.6542 37.8543 21.304 37.8543 21.304L26.7764 9.9865ZM24.6658 4.82973C25.1838 4.28706 25.8377 3.89311 26.5596 3.68886C27.1186 3.56336 28.1797 3.68886 28.0313 4.51029C27.883 5.33172 27.0274 5.76525 26.514 6.18738C25.8626 6.75526 25.0774 7.14789 24.2322 7.32825L23.3423 6.41555C23.5933 6.07329 24.5745 4.921 24.6658 4.82973ZM9.83436 4.37338C9.78334 4.27463 9.75671 4.16509 9.75671 4.05394C9.75671 3.94278 9.78334 3.83324 9.83436 3.73449C9.93301 3.61238 10.0615 3.51777 10.2074 3.45981C10.3533 3.40185 10.5116 3.38251 10.6672 3.40364C12.5496 3.46068 13.6905 4.921 14.6146 6.3471H14.6945L13.6905 7.30544C13.6905 7.30544 11.9792 6.39273 11.2605 5.78807C10.7078 5.4129 10.2347 4.93211 9.86859 4.37338H9.83436ZM18.9271 38.3145C18.9271 38.3145 6.41173 30.4881 7.98614 18.8511C12.4356 14.744 18.9728 8.49195 18.9728 8.49195C18.9728 8.49195 25.51 14.744 29.9594 18.8511C31.4426 30.4881 18.9271 38.3145 18.9271 38.3145Z" fill="#FF9130"/>
<path d="M22.8177 15.0114H20.8896V20.499C20.9118 20.7173 20.8764 20.9376 20.7869 21.1379C20.7125 21.2383 20.6195 21.3234 20.5131 21.3889C20.4123 21.4503 20.2994 21.4892 20.1822 21.503C20.1138 21.503 20.0339 21.4345 19.9541 21.3547C19.8683 21.2604 19.7988 21.1524 19.7487 21.0352C19.7078 20.8396 19.7078 20.6376 19.7487 20.442C19.7487 18.8219 19.7487 17.2019 19.7487 15.5818V15.0114H18.2542C18.2542 15.1711 18.2542 15.2966 18.2542 15.4221V20.6017C18.2725 20.7609 18.2496 20.9222 18.1876 21.07C18.1257 21.2179 18.0268 21.3473 17.9005 21.446C17.8101 21.4963 17.7072 21.5201 17.6039 21.5144C17.5246 21.5121 17.4467 21.4927 17.3757 21.4574C17.0334 21.3319 17.0448 20.9668 17.0448 20.6245V15.2624C17.0448 15.2624 17.0448 15.1939 17.0448 15.1483V15H15.0483C15.0483 15 15.0483 15.0799 15.0483 15.1141C15.0483 15.1483 15.0483 15.4906 15.0483 15.6731C15.0483 17.2703 15.0483 18.8562 15.0483 20.4306V22.0734C14.983 22.831 15.1718 23.5888 15.585 24.2272C15.9982 24.8655 16.6122 25.3481 17.3301 25.5987H17.3985V33.8205H20.5359V25.633L20.7983 25.5075C21.3806 25.315 21.8882 24.9454 22.2502 24.4505C22.6122 23.9555 22.8106 23.3598 22.8177 22.7466C22.8177 22.0278 22.8177 21.3205 22.8177 20.6017C22.8177 18.8562 22.8177 17.0992 22.8177 15.3537C22.8177 15.2396 22.8177 15.1369 22.8177 15.0114Z" fill="#FF9130"/>
</svg>
