<svg width="303" height="54" viewBox="0 0 303 54" fill="none" xmlns="http://www.w3.org/2000/svg">
<path d="M63.2144 5.50103C65.3878 4.34917 67.6313 3.41334 70.1337 3.15561C72.0379 2.9596 73.8788 3.15644 75.6471 3.85123C77.6342 4.63276 79.3366 5.84468 80.8425 7.31599C81.2083 7.67297 81.5715 8.06499 81.6049 8.73892C80.0836 7.99576 78.676 7.19671 77.0692 6.87977C77.0043 6.8856 76.9393 6.89144 76.8744 6.89728C76.9086 6.92647 76.9436 6.95483 76.9778 6.98403C77.2179 7.66547 77.8931 8.14173 77.9632 8.99499C76.8513 8.60881 75.7949 8.20178 74.7138 7.87649C73.6463 7.55537 72.5524 7.31682 71.379 7.20672C71.8507 7.60208 72.3268 7.99326 72.7925 8.39528C72.9421 8.52457 73.2139 8.62799 73.084 8.88239C72.966 9.11343 72.6977 9.02001 72.5011 9.00166C72.049 8.96079 71.602 8.85987 71.1499 8.82067C69.4158 8.6697 67.7304 8.92159 66.0835 9.44873C65.9177 9.50211 65.7109 9.50461 65.6058 9.79987C67.4005 9.74149 69.1423 9.88662 70.8585 10.2745C74.7745 11.1586 77.6914 13.2855 79.4717 16.8278C79.9315 17.742 79.7614 18.6002 79.2161 19.4193C79.0281 19.702 78.8401 19.7596 78.6281 19.4218C78.3965 19.0531 78.1358 18.702 77.788 18.1974C77.7846 19.2633 77.7 20.1333 77.0581 20.964C75.665 18.9972 74.2608 17.083 72.1652 15.6684C72.2439 16.6443 72.7789 17.4384 72.831 18.511C70.4542 16.6285 68.1766 14.8794 65.481 13.7175C67.6689 16.0163 68.8398 18.7137 68.8466 21.8206C68.8534 24.7807 68.7039 27.7359 66.4886 30.1013C66.4339 28.5933 67.0442 27.1587 66.91 25.634C66.5373 25.6649 66.4331 25.9426 66.2305 26.0927C65.9271 26.3179 65.6485 26.8576 65.3203 26.6858C65.0118 26.5248 65.2383 25.9668 65.2793 25.5923C65.3947 24.5289 65.5793 23.4712 65.5477 22.3969C65.54 22.1209 65.6006 21.8273 65.3861 21.5303C64.981 21.8415 64.8947 22.3269 64.6212 22.688C64.5041 22.8432 64.493 23.1593 64.2212 23.0917C64.0024 23.0375 64.0007 22.7548 63.9768 22.5596C63.8469 21.5237 63.7383 20.4852 63.6153 19.4485C63.505 18.5218 63.2956 17.6235 62.7606 16.6435C62.488 17.4242 62.2641 18.0647 61.9795 18.8796C61.0804 17.2674 61.065 15.4983 60.0052 14.1421C59.6437 14.3923 59.5753 14.7393 59.4369 15.0404C56.9909 20.3843 55.5311 26.0068 54.4184 31.7328C54.1303 33.2158 54.3132 34.7004 54.2201 36.1826C54.1124 37.9 54.1645 39.6273 54.0739 41.3464C54.0329 42.1204 54.2953 42.379 55.0636 42.2772C55.4585 42.2246 55.879 42.2071 56.2678 42.2789C57.6421 42.5316 58.3745 41.9336 58.9762 40.7542C59.8189 39.1002 60.8958 37.5605 61.835 35.9515C62.1555 35.4019 62.4683 35.1375 63.0555 35.6012C63.1162 35.6488 63.2008 35.6671 63.2726 35.7022C65.0622 36.5729 65.0844 36.5846 66.0758 34.8431C68.3731 30.8078 70.6465 26.76 72.9319 22.7181C73.0729 22.4678 73.2071 22.2068 73.3908 21.9874C74.0745 21.1717 74.5779 21.2051 75.1317 22.0758C76.2864 23.8925 77.4419 25.7082 78.6606 27.6241C79.3494 26.6416 80.0255 25.7508 80.6169 24.8099C81.0066 24.1902 81.3784 24.3637 81.7638 24.7249C81.9903 24.9367 82.1501 25.222 82.3177 25.488C84.7953 29.4232 87.2687 33.3609 89.7455 37.2977C90.1164 37.8872 90.5636 37.9461 91.0873 37.4746C91.2249 37.3503 91.3522 37.2152 91.4889 37.0901C92.4761 36.1851 92.9496 36.1984 93.8213 37.2485C95.6417 39.4405 97.4416 41.65 99.2424 43.8578C99.6808 44.3949 100.126 44.7894 100.918 44.882C102.34 45.048 103.569 45.8329 104.887 46.3341C109.076 47.9272 113.243 49.5712 117.416 51.2043C117.629 51.2877 117.895 51.3053 118.024 51.543C117.44 51.9066 10.3969 51.975 4.40061 51.578C4.95357 51.3995 5.53132 51.3745 6.10992 51.3603C7.06115 51.3361 7.17054 51.2327 6.89705 50.2802C6.44323 48.6971 5.83472 47.1632 5.12108 45.6744C3.57074 42.439 1.6153 39.4021 0.174349 36.1125C0.14871 36.0533 0.0598257 36.0199 0 35.9749C0 35.6613 0 35.3477 0 35.0341C0.276908 34.5845 0.696543 34.4861 1.2025 34.5336C2.16826 34.6237 3.09043 34.9073 4.02456 35.1316C4.40317 35.2226 4.65701 35.2468 4.83392 34.8039C6.25435 31.2524 8.80806 28.5324 11.6652 26.0335C13.7967 24.1694 16.0598 22.5271 18.8861 21.7897C19.5964 21.6046 20.3108 21.4486 21.1031 21.5921C20.9484 21.9599 20.8134 22.2685 20.6877 22.5813C19.369 25.8734 19.4707 29.1129 21.1399 32.2633C21.4168 32.7862 21.4433 33.1649 21.1604 33.6937C20.0818 35.7105 19.8895 37.8666 20.2553 40.0886C20.2929 40.3188 20.2869 40.569 20.5724 40.6683C21.1689 40.8768 21.7048 41.2404 22.462 41.3797C22.2347 35.1792 22.0099 29.0387 21.7843 22.8974C22.1432 23.1968 22.1902 23.5755 22.2295 23.9417C22.5919 27.2871 22.9953 30.6301 23.2637 33.9831C23.3414 34.9523 23.6397 35.5487 24.655 35.8281C25.5516 31.6193 28.4412 29.4316 32.6794 28.6484C31.2615 28.2422 29.8966 28.5825 28.3591 28.8344C28.6916 28.3423 28.9001 28.032 29.2138 27.5674C28.1352 27.911 27.2652 28.2755 26.4208 28.7176C26.1062 28.8819 25.7114 29.3206 25.4516 29.0938C25.1294 28.8118 25.6242 28.4282 25.7105 28.0737C25.7353 27.9703 25.7772 27.8802 25.6695 27.7609C24.8226 28.2522 23.9688 28.7476 22.9987 29.3106C23.1013 28.5566 23.5346 28.1462 23.8397 27.6725C24.1397 27.3906 24.4405 27.1087 24.7405 26.8276C24.8217 26.7483 24.902 26.6699 24.9832 26.5907C25.102 26.5023 25.2217 26.4139 25.3405 26.3246C25.4123 26.2712 25.4849 26.2187 25.5567 26.1653C25.4319 26.0844 25.3328 26.0936 25.2721 26.2412C25.1379 26.3171 25.0037 26.3939 24.8696 26.4698C24.7867 26.5482 24.7046 26.6266 24.6217 26.7058C24.244 26.906 23.9286 27.177 23.6645 27.5057C23.1132 27.821 23.1739 27.3105 23.1227 27.082C22.7637 25.4772 22.5834 23.8524 22.5646 22.2068C22.5577 21.5754 22.7825 21.6371 23.1987 21.9015C24.7209 22.8674 26.2908 23.7565 27.8891 24.5989C28.1198 24.7207 28.3292 24.8858 28.6292 24.8258C30.5581 24.4404 32.3965 24.8917 34.2246 25.4188C34.2896 25.4247 34.3921 25.4572 34.4109 25.4305C34.4673 25.3538 34.3972 25.3179 34.3229 25.302C33.9203 24.91 33.2554 24.9551 32.7896 24.478C33.7289 24.2277 34.5323 24.347 35.2921 24.7082C35.8305 24.9634 36.2817 25.1135 36.4997 24.3654C36.5168 24.3078 36.6116 24.272 36.6706 24.2252C37.0407 24.4638 36.7287 24.9225 37.0296 25.2328C37.2672 24.8642 37.4714 24.5322 37.6902 24.2094C38.6987 22.7206 40.0174 21.6146 41.8259 21.1725C43.8036 20.6888 45.7667 20.9473 47.7179 21.3735C47.8999 21.4136 48.1409 21.472 48.1375 21.6738C48.1332 21.9332 47.8614 21.8531 47.6922 21.8748C46.7897 21.9924 45.9214 22.2068 45.0915 22.6747C45.1915 22.7539 45.253 22.7948 45.306 22.8448C45.4676 23.0008 45.8787 22.9466 45.8274 23.2294C45.7804 23.4871 45.4419 23.5313 45.1787 23.6114C44.489 23.8199 43.8087 24.0584 43.1327 24.3078C42.6771 24.4763 42.1806 24.6081 41.9413 25.1002C42.3814 25.3462 42.8976 25.3513 43.3292 25.7132C42.4165 26.0827 41.4421 26.1328 40.6653 26.7492C42.4677 26.3788 44.2693 26.1611 46.0718 26.6316C47.9127 27.1128 49.3537 28.2138 50.6767 29.5975C51.5741 26.4464 52.5373 23.417 53.6534 20.4335C54.5226 18.109 55.5807 15.8594 56.5481 13.5749C56.5815 13.544 56.6148 13.514 56.6473 13.4832C56.5823 13.4765 56.5174 13.469 56.4524 13.4623C54.8824 13.8618 53.6859 14.8869 52.3851 15.8177C52.0116 14.9712 52.639 14.2755 52.6509 13.494C50.2647 14.0545 48.6853 15.766 46.8205 17.1081C46.4863 16.1897 46.9718 15.364 46.829 14.4457C45.3283 15.7961 44.0941 17.2298 42.8933 18.7604C42.4344 18.0514 42.5917 17.3057 42.5182 16.4867C41.1772 17.606 40.5012 19.0706 39.5414 20.3877C39.4371 20.1941 39.373 20.1066 39.3423 20.009C39.3115 19.9114 39.3029 19.8038 39.3021 19.7004C39.2824 16.8545 40.0345 14.2497 42.1207 12.1853C45.4616 8.87988 49.5434 7.79141 54.1978 8.62549C54.4756 8.67554 54.7517 8.80899 55.1346 8.58629C53.6645 7.49114 51.892 7.55036 50.2528 7.15001C50.8374 6.85141 51.4168 6.67542 51.9809 6.45939C52.1646 6.38933 52.4715 6.43437 52.5082 6.18248C52.5492 5.89722 52.2527 5.81632 52.051 5.70789C50.5134 4.88382 48.8434 4.56854 47.1094 4.49514C46.8444 4.48429 46.5726 4.46511 46.3188 4.39672C46.159 4.35334 45.9231 4.31831 45.918 4.07726C45.9137 3.88042 46.1128 3.85373 46.2393 3.76949C46.5649 3.5543 46.9794 3.47423 47.2649 3.14143C45.5223 2.32487 43.6788 2.37491 41.7626 2.5167C42.0002 2.06714 42.3207 1.95871 42.6096 1.84777C44.2574 1.21721 45.9385 0.696747 47.6854 0.378963C48.1657 0.291385 48.687 0.367286 49.1255 0.0820312H51.0579C51.2903 0.380631 51.6476 0.24134 51.9399 0.293887C54.5833 0.771814 56.6977 2.08715 58.4113 4.06976C58.8506 4.57771 59.2164 5.15406 59.801 5.6078C60.1864 4.87714 59.5189 4.2249 59.7463 3.4859C60.2796 3.72195 60.4565 4.15734 60.6035 4.58689C60.7667 5.06481 60.959 5.04062 61.318 4.7487C62.5999 3.70693 64.099 3.24569 65.9374 3.23902C64.9716 4.08561 63.8076 4.4551 63.0905 5.36425C63.0512 5.41512 62.9674 5.49269 62.9803 5.51271C63.0538 5.62948 63.1392 5.55025 63.2187 5.50354L63.2144 5.50103ZM33.2409 31.7762C32.2734 32.4009 31.4692 33.2058 30.641 33.9856C30.359 34.2509 30.0898 34.8222 29.7872 34.7046C29.3762 34.5445 29.6958 33.9614 29.6001 33.5736C29.5907 33.5344 29.5454 33.5027 29.4881 33.4326C28.3694 34.391 27.9147 35.8081 26.9951 36.9441C26.5737 36.442 26.6498 35.8364 26.2977 35.3051C26.0703 35.7956 25.8721 36.246 25.655 36.6872C25.5191 36.9624 25.6627 37.0992 25.8592 37.2761C28.4565 39.6157 31.0675 41.9411 33.6246 44.3215C35.2869 45.8696 37.1082 47.2566 38.5765 49.0082C39.2354 49.7939 40.5422 49.9599 41.4746 49.5587C41.8097 49.4144 42.0395 49.2067 42.1378 48.8397C42.5002 47.4935 42.6976 46.1306 42.6199 44.7386C42.3635 40.1153 40.6174 35.9732 38.2688 32.0289C38.1022 31.7486 37.9782 31.4125 37.6107 31.2373C37.2184 31.8062 37.121 32.4401 37.039 33.0848C36.9954 33.4251 37.1629 33.9456 36.7569 34.0407C36.4458 34.1132 36.3535 33.5636 36.1074 33.3375C36.0732 33.3059 36.0185 33.2958 35.9835 33.2808C35.4946 34.5853 35.7433 35.9524 35.7604 37.3436C35.2809 37.1568 35.181 36.7206 34.7579 36.6038C34.7818 37.6731 35.2912 38.654 35.2835 39.7991C34.8605 39.5806 34.54 39.4155 34.0742 39.1761C34.4477 40.3096 34.7776 41.3088 35.1613 42.4732C33.9434 41.6149 33.3699 40.5682 33.0007 39.4038C32.1982 36.8749 32.17 34.3768 33.3896 31.9438C33.4793 31.8587 33.593 31.7728 33.4776 31.6435C33.4665 31.631 33.3229 31.7294 33.2417 31.777L33.2409 31.7762ZM49.5169 31.2665C49.475 31.425 49.4468 31.5468 49.4109 31.6661C49.1819 32.4251 49.1169 32.4518 48.4785 31.9054C48.1178 31.5968 47.8127 31.2282 47.47 30.8987C47.1256 30.5676 46.7837 30.2214 46.2179 30.108C46.253 30.7486 46.8085 31.2223 46.4239 31.8938C45.2565 30.9738 44.0112 30.2723 42.5327 30.0521C42.4267 30.4992 42.8318 30.8378 42.6113 31.3041C41.7481 30.9663 40.8883 30.6293 40.0285 30.2932C43.1224 35.2618 45.265 40.5615 47.4461 46.0939C47.9734 41.3222 48.8366 36.869 49.9135 32.4534C50.0186 32.0239 50.1912 31.5768 49.5161 31.2665H49.5169ZM83.2253 44.9871C83.2715 44.9379 83.3176 44.8879 83.3638 44.8386C83.2526 44.5509 83.1484 44.2615 83.0304 43.9762C81.3023 39.7983 79.5768 35.6188 77.8359 31.4459C77.6068 30.897 77.4196 30.3774 77.8008 29.8319C78.0264 29.5091 77.8521 29.2581 77.6803 28.9795C76.7453 27.4581 75.8274 25.9276 74.8933 24.4062C74.795 24.2461 74.7719 23.9984 74.395 23.9633C74.395 25.3004 74.3899 26.6174 74.3993 27.9344C74.4019 28.2397 74.6147 28.4574 74.8112 28.6751C75.4625 29.3949 75.7907 30.2314 75.6915 31.1915C75.5984 32.0889 75.824 32.8972 76.3026 33.6512C76.6966 34.2717 77.0906 34.8923 77.506 35.4986C77.8846 36.0516 78.0264 36.6238 77.8316 37.2777C77.5188 38.3278 77.2718 39.3988 76.9145 40.4339C76.7257 40.9827 76.9094 41.2154 77.3667 41.479C78.7033 42.248 80.0135 43.0621 81.334 43.8578C81.963 44.2364 82.5937 44.6118 83.2236 44.9888L83.2253 44.9871ZM87.249 46.9605C87.3276 46.9464 87.4054 46.9322 87.484 46.9188C87.3507 45.3132 87.2276 43.7068 87.0738 42.1029C87.0499 41.8551 86.9405 41.5749 86.7764 41.3872C85.8106 40.2812 86.1773 39.1194 86.549 37.8741C88.1481 39.0201 89.2643 40.5798 90.9061 41.6291C87.9139 36.9216 84.9218 32.2132 81.9296 27.5057C81.863 27.5265 81.7963 27.5482 81.7297 27.5691C81.7297 28.0303 81.7801 28.4974 81.7203 28.9503C81.5485 30.2515 82.0014 31.3324 82.7783 32.365C83.5364 33.3734 84.2005 34.4485 84.8953 35.5003C85.0748 35.7731 85.3269 36.04 85.1406 36.497C84.6962 36.2134 84.2748 35.9499 83.8595 35.678C83.468 35.4211 83.2544 35.3869 83.2817 35.9757C83.3108 36.6038 83.3219 37.2235 83.5629 37.8199C84.7944 40.8659 86.0209 43.9137 87.249 46.9614V46.9605ZM74.4771 49.3427L74.5369 49.1717C73.7617 48.7296 72.9934 48.2734 72.208 47.848C71.2525 47.33 70.4123 46.6786 69.8765 45.747C69.0278 44.2698 68.1535 42.7977 67.4475 41.2546C66.6296 39.4664 64.9511 38.6481 63.429 37.3945C63.429 37.8566 63.4614 38.1427 63.423 38.4196C63.3187 39.1594 63.5042 39.6624 64.2811 40.016C65.093 40.3863 65.563 41.1545 65.3289 42.022C65.1237 42.7835 65.4425 43.1772 66.0066 43.4666C67.4595 44.2114 67.9697 45.3299 67.8646 46.9213C67.7732 48.3101 67.9039 48.3159 69.3013 48.5228C69.8047 48.597 70.3046 48.6912 70.8063 48.7697C72.0293 48.9623 73.2523 49.1517 74.4754 49.3427H74.4771ZM60.2385 48.7246C58.8643 47.3884 57.9694 45.8345 57.6831 43.9729C57.6626 43.8411 57.6036 43.701 57.4472 43.6968C56.5456 43.6759 55.6302 43.4557 54.7559 43.8486C54.5944 43.9212 54.4337 43.9887 54.4354 44.2364C54.4397 44.9863 54.8662 45.4592 55.6747 45.5017C56.1037 45.5243 56.5242 45.5977 56.6875 45.9988C57.3242 47.5602 58.8113 48.0815 60.2385 48.7246ZM105.804 48.1416C104.281 47.3867 102.711 46.7562 101.069 46.3075C100.235 46.0798 99.4304 45.8145 98.8432 45.1423C98.7279 45.0105 98.5911 44.8103 98.3911 45.0213C97.7365 45.7111 97.0938 46.4125 96.4459 47.109C99.7116 46.903 102.73 47.7412 105.804 48.1416ZM93.0128 38.3595C92.8974 38.8633 92.6179 39.4138 92.9778 39.6891C93.5572 40.1319 93.4683 40.6674 93.4837 41.2263C93.4905 41.474 93.3914 41.7801 93.7213 41.9085C94.7247 42.3005 95.734 42.6792 96.7408 43.0629C96.775 43.0154 96.8092 42.967 96.8434 42.9194C95.5665 41.3997 94.2896 39.8801 93.0128 38.3604V38.3595ZM33.446 46.6836C33.4802 46.6353 33.5144 46.5869 33.5486 46.5377C30.4359 44.8904 27.3241 43.2439 24.1833 41.5816C24.0158 42.2263 24.3798 42.3514 24.7285 42.5174C27.6369 43.9011 30.541 45.2932 33.446 46.6828V46.6836ZM1.69478 35.6805C1.9922 36.512 2.36397 37.0967 3.19469 37.3828C3.91346 37.6305 4.09379 37.3611 4.17498 36.7523C4.21601 36.4453 4.18096 36.271 3.84765 36.1826C3.16222 35.9999 2.49901 35.7288 1.69478 35.6813V35.6805ZM27.2036 44.9246C26.3455 44.3007 25.3704 43.9086 24.3269 43.6493C25.155 44.3257 26.2379 44.5125 27.2036 44.9246ZM20.8698 42.1696C21.0655 42.8894 21.7091 42.8127 22.1714 43.0504C22.274 43.1029 22.4287 43.1997 22.4979 43.0179C22.5509 42.8786 22.4492 42.7743 22.3133 42.7218C21.833 42.5358 21.351 42.3531 20.8698 42.1696Z" fill="white"/>
<path d="M98.1628 13.0826C97.5081 13.1557 96.9543 13.2172 96.4014 13.2788C96.4006 13.3195 96.3997 13.3603 96.398 13.401C97.2162 13.46 98.0421 13.6197 98.8509 13.5598C101.483 13.3652 103.751 14.2499 105.878 15.6193C106.999 16.3402 108.065 17.13 109.033 18.038C109.183 18.1785 109.387 18.3315 109.266 18.566C109.167 18.7597 108.933 18.7073 108.756 18.7131C106.744 18.7846 104.732 18.8437 102.719 18.9127C98.5351 19.0573 94.3517 19.2053 90.1682 19.355C89.9868 19.3616 89.807 19.3974 89.6282 19.5379C91.9861 19.5895 94.3431 19.6402 96.701 19.6926C101.103 19.7898 105.505 19.8896 109.907 19.9836C110.606 19.9985 111.143 20.2846 111.542 20.8316C113.62 23.676 114.779 26.843 115.154 30.3035C115.533 33.8064 114.918 37.133 113.437 40.3333C113.237 40.7665 112.982 40.9352 112.476 40.9635C110.202 41.0874 107.931 41.2653 105.658 41.4657C107.019 41.6278 108.383 41.5455 109.746 41.5422C110.498 41.5405 111.251 41.5538 112.003 41.5189C112.559 41.4931 112.593 41.7309 112.391 42.1192C111.422 43.9792 110.113 45.5739 108.425 46.8743C108.114 47.1146 107.821 47.0015 107.519 46.8826C105.979 46.2731 104.442 45.6587 102.901 45.0551C102.503 44.8996 102.101 44.6992 101.686 44.651C100.29 44.4897 99.4192 43.6707 98.613 42.6422C97.1195 40.7365 95.5413 38.8924 94.0076 37.0158C93.7543 36.7057 93.4736 36.4388 93.1329 36.2193C92.4945 35.8077 91.9399 35.747 91.369 36.3797C91.0095 36.778 90.609 37.4274 90.1229 37.3583C89.7831 37.3101 89.5469 36.5618 89.2704 36.1228C87.1342 32.723 85.0014 29.3216 82.8643 25.9226C82.4595 25.2791 82.0718 24.6197 81.4376 24.1475C80.9891 23.8132 80.6245 23.7276 80.2668 24.3088C79.8406 24.9997 79.3151 25.6316 78.8538 26.3026C78.6218 26.6393 78.4695 26.7308 78.1656 26.3408C77.6128 25.6299 77.1814 24.8525 76.7132 24.0943C76.5155 23.7741 76.6123 23.6494 76.9683 23.5596C77.8866 23.3268 78.8169 23.2545 79.761 23.262C79.927 23.2636 80.1957 23.3518 80.2206 23.1023C80.2479 22.8296 79.9955 22.7947 79.7678 22.7955C79.1764 22.7997 78.585 22.788 77.9953 22.8138C77.3098 22.8446 77.2738 22.5461 77.5426 22.0564C78.229 20.8042 79.1388 19.7 80.1427 18.6923C84.5409 14.2798 89.9662 12.3201 96.2534 12.5197C96.8807 12.5396 97.5389 12.5962 98.1611 13.0826H98.1628ZM81.0336 22.8712C81.0336 22.946 81.0353 23.0209 81.0362 23.0965C82.4467 23.1747 83.8494 23.0416 85.4824 22.8712H81.0336Z" fill="white"/>
<path d="M213.964 18.2046C213.964 20.4155 213.955 22.5067 213.969 24.598C213.974 25.3927 214.053 26.1874 214.061 26.983C214.066 27.4678 214.221 27.7302 214.748 27.7234C215.038 27.7191 215.331 27.8278 215.62 27.8176C216.123 27.7998 216.07 28.1233 216.088 28.4493C216.109 28.8119 216.006 28.9689 215.602 28.963C214.057 28.9426 212.51 28.946 210.964 28.9613C210.609 28.9647 210.477 28.8373 210.523 28.5011C210.561 28.2235 210.381 27.8991 210.905 27.7998C212.129 27.5697 212.143 27.5323 212.147 26.3352C212.158 23.1996 212.133 20.064 212.164 16.9284C212.171 16.1515 211.951 15.693 211.114 15.7516C210.516 15.7932 210.523 15.4485 210.512 15.0104C210.498 14.4543 210.873 14.5977 211.16 14.596C212.466 14.5876 213.774 14.6224 215.078 14.5774C215.604 14.5595 215.884 14.7404 216.151 15.1726C218.039 18.2198 219.953 21.251 221.859 24.2872C221.993 24.5003 222.132 24.7109 222.259 24.9087C222.259 22.9712 222.264 21.0506 222.257 19.13C222.253 18.3064 222.223 17.4837 222.208 16.6601C222.199 16.1481 222.043 15.7949 221.432 15.8144C221.142 15.8238 220.85 15.7168 220.559 15.7227C220.003 15.7329 220.192 15.3347 220.156 15.0554C220.115 14.7327 220.212 14.5808 220.584 14.585C222.13 14.6028 223.676 14.5994 225.222 14.5867C225.555 14.5842 225.737 14.6742 225.688 15.0316C225.65 15.3101 225.832 15.6387 225.308 15.7423C224.043 15.9936 224.035 16.0284 224.032 17.3563C224.024 20.9699 224.016 24.5844 224.043 28.198C224.047 28.8 223.893 28.9231 223.274 29.0156C221.512 29.2789 220.502 28.586 219.593 27.0815C217.906 24.2881 216.036 21.6033 214.354 18.8014C214.249 18.6265 214.132 18.4584 213.966 18.2037L213.964 18.2046Z" fill="white"/>
<path d="M185.229 14.5906C187.403 14.6221 189.182 14.4685 190.941 14.8978C193.508 15.5243 194.955 17.0546 195.249 19.6893C195.416 21.1778 195.325 22.6697 194.85 24.119C193.898 27.0302 191.689 28.3429 188.869 28.8269C186.578 29.2203 184.257 29.0061 181.949 29.0564C181.642 29.0633 181.479 28.948 181.546 28.6433C181.603 28.3805 181.325 28.016 181.849 27.8795C183.153 27.5389 183.157 27.515 183.16 26.1503C183.165 23.0274 183.145 19.9044 183.171 16.7815C183.176 16.1217 182.983 15.8068 182.297 15.7761C181.999 15.7624 181.53 15.8879 181.546 15.2435C181.558 14.7331 181.668 14.5573 182.202 14.5778C183.343 14.6204 184.486 14.5906 185.23 14.5906H185.229ZM186.515 21.7036C186.524 21.7036 186.533 21.7036 186.541 21.7036C186.541 23.3841 186.57 25.0655 186.528 26.7443C186.51 27.463 186.825 27.6029 187.441 27.5594C189.346 27.4254 190.853 26.2886 191.457 24.4305C191.978 22.8285 192.029 21.1864 191.671 19.5442C191.162 17.2082 189.683 16.0389 187.326 16.0287C186.757 16.0261 186.471 16.132 186.497 16.8224C186.555 18.4475 186.515 20.076 186.515 21.7036Z" fill="white"/>
<path d="M166.334 21.5992C166.305 24.0124 165.758 26.2542 163.598 27.7286C161.283 29.3086 158.713 29.4594 156.156 28.3591C153.695 27.3 152.785 25.1852 152.579 22.7399C152.451 21.2135 152.576 19.6978 153.238 18.272C154.547 15.4517 157.668 14.0753 161.218 14.7421C164.205 15.3033 166.225 17.7042 166.334 20.827C166.343 21.0849 166.335 21.3429 166.335 21.6009L166.334 21.5992ZM162.808 22.4456C162.808 22.1366 162.829 21.8259 162.805 21.5193C162.68 19.9987 162.523 18.4739 161.557 17.1907C160.206 15.3965 157.552 15.6618 156.615 17.6728C156.179 18.6058 156.066 19.6047 156.069 20.6168C156.074 22.5314 156.156 24.436 157.192 26.1511C157.775 27.1163 158.636 27.6602 159.827 27.5696C161.067 27.4756 161.882 26.8171 162.336 25.7102C162.768 24.6586 162.828 23.5575 162.808 22.4465V22.4456Z" fill="white"/>
<path d="M260.193 21.6573C260.236 22.2247 260.163 22.8912 260.03 23.5527C259.523 26.0792 258.158 27.9632 255.536 28.6883C252.883 29.4217 250.349 29.1921 248.273 27.1802C247.172 26.1139 246.683 24.7495 246.503 23.286C246.293 21.5738 246.37 19.8757 247.112 18.2718C248.419 15.443 251.54 14.072 255.091 14.7451C258.074 15.3109 260.088 17.7209 260.192 20.852C260.199 21.0841 260.192 21.317 260.192 21.6573H260.193ZM256.67 22.4675C256.67 22.1578 256.691 21.8464 256.667 21.5391C256.543 20.0153 256.386 18.4874 255.421 17.2006C254.068 15.396 251.423 15.6594 250.481 17.6788C250.045 18.6137 249.932 19.6148 249.935 20.6282C249.939 22.5468 250.022 24.4555 251.055 26.1742C251.637 27.1414 252.497 27.6881 253.687 27.5989C254.927 27.5056 255.742 26.8473 256.198 25.7381C256.63 24.6851 256.69 23.5808 256.67 22.4675Z" fill="white"/>
<path d="M276.761 21.5874C276.797 22.2669 276.721 22.9315 276.587 23.5888C276.074 26.1034 274.705 27.9747 272.081 28.6937C269.424 29.4217 266.893 29.1856 264.822 27.1768C263.723 26.1124 263.22 24.7527 263.062 23.2943C262.786 20.7344 262.995 18.2305 265.113 16.3797C267.44 14.3471 270.204 14.1225 273.016 15.256C275.881 16.4109 276.72 18.8129 276.76 21.5874H276.761ZM273.229 22.4766C273.229 22.1682 273.25 21.858 273.226 21.552C273.108 20.0854 272.934 18.627 272.067 17.3569C271.427 16.4183 270.504 15.975 269.341 16.0786C268.2 16.1806 267.434 16.7967 267 17.8085C266.607 18.7273 266.49 19.6947 266.493 20.6776C266.5 22.5877 266.582 24.4895 267.623 26.1996C268.208 27.162 269.074 27.6984 270.263 27.6029C271.502 27.5034 272.312 26.8421 272.763 25.7357C273.192 24.6844 273.249 23.5855 273.229 22.4774V22.4766Z" fill="white"/>
<path d="M146.453 23.1404C147.364 23.1404 148.275 23.1338 149.186 23.1445C149.42 23.147 149.793 23.0197 149.738 23.4651C149.703 23.7527 149.972 24.1881 149.415 24.2732C148.865 24.3575 148.763 24.6864 148.773 25.1623C148.794 26.0663 148.751 26.9719 148.761 27.8767C148.766 28.2106 148.672 28.3816 148.312 28.4758C146.111 29.0534 143.888 29.3046 141.644 28.7956C138.787 28.1478 137.041 26.2621 136.734 23.3569C136.444 20.621 136.932 18.0669 139.325 16.2267C141.416 14.6196 143.883 14.4039 146.418 14.6749C148.508 14.898 148.506 14.9443 148.579 16.9572C148.593 17.3439 148.572 17.7322 148.571 18.1198C148.571 18.4569 148.631 18.7874 148.082 18.8089C147.619 18.8271 147.387 18.7668 147.239 18.2611C147.012 17.4885 147.137 16.4292 146.022 16.1788C144.534 15.845 143.079 15.9251 141.851 16.9489C140.763 17.8554 140.413 19.1072 140.275 20.4111C140.11 21.9629 140.166 23.5114 140.715 25.0037C141.337 26.6943 142.754 27.6264 144.571 27.6288C145.201 27.6288 145.454 27.3867 145.441 26.8108C145.436 26.6042 145.446 26.3968 145.446 26.1903C145.448 24.4509 145.451 24.4228 143.688 24.2584C143.148 24.208 143.208 23.9345 143.186 23.5924C143.159 23.1858 143.368 23.1288 143.72 23.1346C144.631 23.1511 145.542 23.1404 146.453 23.1404Z" fill="white"/>
<path d="M240.379 23.1421C241.291 23.1421 242.201 23.1387 243.112 23.1445C243.334 23.1462 243.659 23.0652 243.602 23.4479C243.56 23.7355 243.85 24.1752 243.298 24.2686C242.709 24.3687 242.623 24.7241 242.638 25.2233C242.663 26.0755 242.612 26.9301 242.629 27.7831C242.636 28.1683 242.559 28.3882 242.121 28.5006C239.996 29.0469 237.85 29.2751 235.682 28.8486C232.875 28.2964 231.114 26.5301 230.662 23.681C230.075 19.978 231.397 16.7388 234.75 15.3179C236.551 14.5542 238.437 14.4583 240.344 14.6815C242.373 14.9195 242.371 14.9567 242.443 16.9388C242.458 17.3256 242.443 17.7141 242.436 18.1017C242.43 18.4249 242.531 18.7894 241.968 18.806C241.528 18.8192 241.262 18.8109 241.11 18.2803C240.888 17.5066 241.013 16.4428 239.906 16.185C238.421 15.8395 236.973 15.9296 235.73 16.9338C235.095 17.4479 234.683 18.1207 234.467 18.8779C233.884 20.9195 233.888 22.9701 234.584 24.9853C235.183 26.721 236.665 27.6707 238.498 27.6286C239.035 27.6162 239.303 27.4286 239.297 26.9087C239.289 26.2375 239.256 25.5655 239.274 24.8943C239.284 24.4761 239.083 24.3612 238.695 24.3546C238.348 24.3488 238 24.2463 237.657 24.2604C237.144 24.2819 237.053 24.0579 237.044 23.6115C237.033 23.0561 237.383 23.1396 237.727 23.1404C238.611 23.1421 239.496 23.1404 240.379 23.1404V23.1421Z" fill="white"/>
<path d="M169.373 46.9502C168.104 47.8867 166.946 48.4506 165.551 48.3918C164.407 48.343 163.6 47.8271 163.183 46.7614C162.923 46.0973 162.817 45.4017 162.819 44.688C162.823 42.6145 162.802 40.5411 162.831 38.4685C162.839 37.8947 162.65 37.6106 162.073 37.5974C161.723 37.5891 161.494 37.5104 161.507 37.0558C161.523 36.5499 161.851 36.6782 162.113 36.6766C163.482 36.6683 164.852 36.6708 166.221 36.6749C166.471 36.6758 166.774 36.5805 166.772 37.0318C166.77 37.378 166.716 37.5841 166.307 37.5841C165.686 37.5841 165.448 37.8673 165.465 38.5331C165.516 40.4831 165.444 42.4357 165.501 44.3849C165.551 46.0667 166.431 46.7158 167.986 46.3407C168.837 46.1354 169.243 45.694 169.254 44.7964C169.283 42.6261 169.252 40.455 169.284 38.2847C169.293 37.7282 168.984 37.6396 168.569 37.6073C168.217 37.58 167.995 37.5013 168.014 37.0525C168.035 36.5532 168.359 36.6766 168.625 36.6749C169.994 36.6683 171.364 36.6708 172.733 36.6733C172.969 36.6733 173.237 36.6095 173.229 37.0095C173.224 37.3241 173.24 37.5941 172.798 37.5816C172.117 37.5618 171.917 37.9129 171.924 38.5761C171.954 41.1613 171.941 43.7465 171.917 46.3325C171.912 46.8641 172.071 47.1572 172.636 47.1613C173.012 47.1646 173.284 47.2433 173.234 47.7459C173.178 48.3148 172.776 48.0705 172.523 48.0813C171.766 48.1128 171.001 48.0407 170.249 48.107C169.483 48.174 169.052 48.0217 169.372 46.951L169.373 46.9502Z" fill="white"/>
<path d="M244.275 39.6993C244.275 41.8624 244.301 44.0517 244.261 46.2402C244.247 47.0478 244.5 47.4494 245.301 47.4114C245.633 47.3953 245.883 47.4258 245.876 47.9188C245.868 48.4853 245.517 48.3314 245.242 48.334C244.188 48.3441 243.133 48.334 242.079 48.3407C241.797 48.3424 241.557 48.3559 241.572 47.9314C241.583 47.6177 241.61 47.3962 241.986 47.4088C242.66 47.4317 242.843 47.0807 242.834 46.3966C242.798 43.7574 242.809 41.1165 242.837 38.4773C242.843 37.8795 242.645 37.5877 242.076 37.6063C241.665 37.6199 241.554 37.4287 241.572 37.0212C241.593 36.5544 241.899 36.6795 242.135 36.6778C243.117 36.6685 244.101 36.6956 245.082 36.6635C245.494 36.6499 245.723 36.7962 245.935 37.1556C247.364 39.5707 248.815 41.9723 250.258 44.3781C250.379 44.5802 250.5 44.7815 250.691 45.1003C250.691 43.5274 250.699 42.1008 250.686 40.6743C250.68 39.9783 250.587 39.2807 250.619 38.5881C250.648 37.9361 250.453 37.6013 249.796 37.6283C249.654 37.6342 249.51 37.5793 249.367 37.5843C249 37.5962 249.035 37.3408 249.017 37.0837C248.992 36.7396 249.145 36.666 249.44 36.6685C250.566 36.6804 251.693 36.6719 252.82 36.6736C253.054 36.6736 253.311 36.6153 253.304 37.0203C253.298 37.3433 253.31 37.6156 252.879 37.6038C252.213 37.5843 252.018 37.9437 252.024 38.6202C252.051 41.6332 252.014 44.647 252.04 47.6608C252.045 48.2266 251.883 48.2993 251.371 48.3644C250.078 48.5293 249.309 48.0515 248.622 46.8685C247.314 44.6132 245.889 42.4281 244.57 40.1753C244.462 39.991 244.345 39.8117 244.274 39.6984L244.275 39.6993Z" fill="white"/>
<path d="M202.761 28.3654C201.212 28.3654 199.662 28.3687 198.114 28.3622C197.787 28.3605 197.368 28.499 197.399 27.9247C197.419 27.5336 197.408 27.2306 197.981 27.2477C198.843 27.2746 199.114 26.8786 199.102 26.077C199.058 22.9649 199.074 19.8521 199.113 16.74C199.121 16.0345 198.85 15.72 198.102 15.7102C197.694 15.7045 197.381 15.6524 197.416 15.1155C197.444 14.674 197.583 14.5738 198.036 14.5762C201.051 14.5925 204.067 14.5917 207.081 14.5762C207.525 14.5738 207.738 14.6675 207.74 15.1155C207.743 16.0076 207.781 16.8997 207.829 17.7901C207.851 18.1787 207.709 18.3457 207.273 18.3506C206.903 18.3547 206.651 18.4036 206.5 17.9351C205.726 15.5286 206.165 16.0549 203.628 15.9449C202.752 15.9066 202.505 16.1453 202.568 16.9339C202.647 17.9237 202.607 18.9233 202.578 19.9172C202.566 20.3189 202.697 20.4517 203.135 20.4337C204.185 20.3897 205.239 20.4223 206.286 20.3498C206.892 20.3075 207.099 20.4134 206.971 21.0073C206.745 22.0639 206.769 22.068 205.586 21.9841C205.201 21.9572 204.813 21.9621 204.426 21.9613C203.2 21.9585 202.587 22.5372 202.587 23.6973C202.587 24.4371 202.578 25.1776 202.59 25.9165C202.604 26.7996 202.799 26.9674 203.779 26.9845C204.029 26.9886 204.277 26.9845 204.526 26.9845C206.553 26.9845 206.54 26.9813 207.091 25.1369C207.18 24.8379 207.03 24.3377 207.73 24.3621C208.258 24.3808 208.461 24.4859 208.439 25.0033C208.4 25.9206 208.383 26.8355 208.252 27.7487C208.186 28.2123 208.052 28.3948 207.491 28.3793C205.916 28.3345 204.338 28.3638 202.761 28.3638V28.3654Z" fill="white"/>
<path d="M297.007 28.3674C295.503 28.3674 293.999 28.365 292.495 28.3699C292.196 28.3707 291.905 28.3992 291.961 27.9569C291.999 27.6588 291.822 27.245 292.391 27.2695C293.337 27.3102 293.569 26.8239 293.557 25.9565C293.514 22.8704 293.523 19.7842 293.558 16.6981C293.566 16.0041 293.301 15.7484 292.64 15.7142C292.351 15.6995 291.954 15.7842 291.971 15.2271C291.984 14.7628 292.053 14.5706 292.597 14.5763C295.371 14.6064 298.146 14.6024 300.92 14.5796C301.443 14.5755 301.663 14.6952 301.652 15.2466C301.635 16.0864 301.687 16.9278 301.727 17.7675C301.744 18.1267 301.673 18.3662 301.236 18.3507C300.92 18.3393 300.64 18.4753 300.488 17.9695C299.753 15.526 300.213 16.0571 297.664 15.952C296.921 15.921 296.764 16.1654 296.8 16.8333C296.856 17.8506 296.837 18.8736 296.804 19.8934C296.79 20.3381 296.945 20.4602 297.377 20.4383C298.386 20.3869 299.397 20.3918 300.406 20.3397C300.862 20.3161 301.013 20.4545 300.948 20.909C300.794 21.9997 300.725 22.051 299.578 21.9842C298.802 21.9386 298.023 21.9654 297.245 21.9329C296.899 21.9182 296.804 22.0428 296.808 22.3711C296.825 23.6205 296.817 24.8708 296.818 26.1202C296.818 26.6782 297.093 26.9738 297.667 26.9828C297.927 26.9868 298.186 26.9877 298.445 26.9877C300.516 26.9877 300.506 26.9852 301.061 25.0198C301.128 24.7836 301.011 24.3764 301.526 24.3699C302.04 24.3633 302.344 24.4106 302.304 25.0557C302.247 25.9703 302.237 26.8867 302.119 27.7997C302.061 28.2444 301.909 28.3902 301.44 28.3796C299.962 28.3471 298.484 28.3674 297.006 28.3674H297.007Z" fill="white"/>
<path d="M289.234 16.7248C289.234 17.3197 289.236 17.7086 289.234 18.0975C289.233 18.4682 289.253 18.7851 288.645 18.8314C288.082 18.8745 287.873 18.7073 287.805 18.2415C287.771 18.0131 287.678 17.7913 287.611 17.5671C287.259 16.3806 286.906 16.0752 285.836 16.0281C284.674 15.9776 283.836 16.3814 283.526 17.1418C283.159 18.0412 283.492 19.1649 284.339 19.7218C284.703 19.9617 285.118 20.1429 285.528 20.3175C286.144 20.5798 286.768 20.8272 287.4 21.0564C291.015 22.3671 290.186 26.6143 288.066 27.9639C286.022 29.2646 282.162 29.4665 280.014 28.3131C279.644 28.1145 279.51 27.8845 279.534 27.5038C279.593 26.5713 279.748 25.6529 279.906 24.7311C280.011 24.118 280.459 24.228 280.916 24.2239C281.462 24.2197 281.395 24.5391 281.392 24.8502C281.391 25.0571 281.391 25.2648 281.401 25.4717C281.489 27.3607 283.375 28.2874 285.189 27.3351C286.338 26.7318 286.54 25.0513 285.582 24.0617C285.177 23.6447 284.656 23.3832 284.111 23.1556C283.416 22.8652 282.722 22.569 282.023 22.2852C278.489 20.852 279.417 16.6602 281.717 15.4977C283.978 14.3541 286.327 14.4013 288.735 14.9557C289.074 15.0335 289.16 15.2618 289.176 15.5349C289.202 15.9999 289.223 16.4658 289.236 16.7248H289.234Z" fill="white"/>
<path d="M301.829 38.2993C301.829 38.7531 301.83 39.0489 301.829 39.3447C301.828 39.6268 301.843 39.8686 301.398 39.9041C300.985 39.9372 300.831 39.8098 300.782 39.4543C300.757 39.2802 300.689 39.1118 300.64 38.9409C300.382 38.0373 300.124 37.8044 299.338 37.7681C298.487 37.7294 297.872 38.0373 297.644 38.6168C297.374 39.302 297.62 40.158 298.241 40.5828C298.508 40.7658 298.812 40.9036 299.113 41.0366C299.564 41.2365 300.022 41.4251 300.485 41.5992C303.137 42.5979 302.528 45.8342 300.974 46.8627C299.475 47.8533 296.644 48.0081 295.069 47.1287C294.797 46.9772 294.699 46.8022 294.717 46.5121C294.76 45.8011 294.875 45.1015 294.99 44.3994C295.067 43.9319 295.395 44.0157 295.731 44.0133C296.131 44.0101 296.082 44.2535 296.079 44.4905C296.078 44.6485 296.078 44.8065 296.085 44.9645C296.15 46.4041 297.533 47.1102 298.864 46.3847C299.707 45.9253 299.855 44.6445 299.152 43.8908C298.855 43.5732 298.473 43.3741 298.073 43.2008C297.563 42.9792 297.055 42.7535 296.542 42.5375C293.95 41.4453 294.631 38.2517 296.318 37.3651C297.976 36.4937 299.698 36.5292 301.464 36.9516C301.713 37.0112 301.775 37.1845 301.787 37.3933C301.807 37.7479 301.822 38.1026 301.831 38.3001L301.829 38.2993Z" fill="white"/>
<path d="M289.807 42.6548C290.689 43.1041 291.116 43.8327 291.571 44.5477C292.187 45.5157 292.63 46.613 293.874 47.1293C294.058 47.2059 294.025 47.3583 294.02 47.4948C294.013 47.7071 293.823 47.6791 293.678 47.6799C292.893 47.6839 292.107 47.7182 291.327 47.6672C290.59 47.6185 290.093 47.1636 289.734 46.6321C289.191 45.8325 288.714 44.997 288.195 44.1838C287.935 43.776 287.645 43.3738 287.137 43.1823C286.783 43.0482 286.49 43.0275 286.512 43.5358C286.546 44.357 286.551 45.1813 286.512 46.0017C286.486 46.5364 286.722 46.7798 287.298 46.7861C287.717 46.7909 287.969 46.8867 287.922 47.3567C287.87 47.8563 287.488 47.6719 287.231 47.6751C285.769 47.6911 284.306 47.6855 282.844 47.6807C282.602 47.6807 282.294 47.7637 282.303 47.3695C282.31 47.0774 282.264 46.7901 282.748 46.8093C283.552 46.8412 283.708 46.4358 283.7 45.791C283.67 43.3243 283.676 40.8576 283.705 38.391C283.712 37.8284 283.477 37.5754 282.877 37.5666C282.481 37.561 282.275 37.4501 282.293 37.0303C282.314 36.5372 282.684 36.6832 282.954 36.6816C284.731 36.672 286.507 36.6736 288.284 36.6792C288.57 36.68 288.859 36.7016 289.14 36.7446C290.844 37.0064 291.652 37.6592 291.878 38.944C292.171 40.6071 291.569 41.7905 290.075 42.4928C290.007 42.5247 289.947 42.5694 289.807 42.6548ZM286.519 39.8825C286.519 40.4235 286.565 40.9678 286.506 41.504C286.446 42.0507 286.749 42.0595 287.193 42.002C288.82 41.7929 289.564 40.544 289.039 38.8873C288.793 38.1101 288.209 37.6999 287.322 37.6967C286.808 37.6951 286.405 37.7677 286.504 38.4029C286.579 38.8873 286.519 39.3885 286.519 39.8825Z" fill="white"/>
<path d="M212.062 42.6567C212.875 43.0931 213.273 43.7974 213.691 44.4906C214.285 45.4765 214.7 46.6012 215.895 47.1309C216.067 47.2067 216.032 47.3646 216.024 47.4994C216.012 47.7076 215.831 47.6765 215.695 47.6773C214.957 47.6805 214.216 47.7172 213.483 47.6637C212.791 47.6135 212.325 47.1548 211.986 46.6244C211.476 45.8243 211.027 44.9891 210.539 44.1771C210.294 43.7695 210.019 43.369 209.54 43.1792C209.192 43.042 208.937 43.0484 208.957 43.5429C208.991 44.3638 208.997 45.1877 208.957 46.0078C208.931 46.5518 209.176 46.7775 209.706 46.7847C210.112 46.7903 210.33 46.9036 210.284 47.3622C210.233 47.8616 209.865 47.6685 209.626 47.6717C208.25 47.6893 206.873 47.6821 205.497 47.6789C205.262 47.6789 204.987 47.7459 204.996 47.3582C205.002 47.0583 204.977 46.7919 205.425 46.8046C206.108 46.8238 206.316 46.4943 206.308 45.8506C206.278 43.3619 206.288 40.8723 206.318 38.3844C206.324 37.8164 206.089 37.5739 205.531 37.5675C205.146 37.5636 204.972 37.4335 204.991 37.0243C205.013 36.529 205.37 36.6869 205.62 36.6853C207.292 36.6741 208.964 36.6773 210.636 36.6821C210.881 36.6821 211.128 36.6973 211.37 36.734C213.011 36.9844 213.797 37.6489 214.011 38.9539C214.285 40.6147 213.718 41.7896 212.306 42.4972C212.243 42.5291 212.187 42.5754 212.063 42.6583L212.062 42.6567ZM208.966 39.9175C208.966 40.4344 209.01 40.9561 208.954 41.4674C208.892 42.0385 209.186 42.0648 209.636 41.9962C211.138 41.7665 211.813 40.5604 211.346 38.9228C211.099 38.0573 210.46 37.6409 209.539 37.7119C209.138 37.743 208.913 37.8396 208.955 38.2974C209.004 38.8343 208.967 39.3775 208.967 39.9183L208.966 39.9175Z" fill="white"/>
<path d="M182.14 42.6672C182.987 43.0884 183.405 43.7693 183.835 44.4397C184.481 45.4431 184.921 46.5921 186.215 47.1352C186.395 47.2108 186.354 47.3733 186.341 47.5063C186.321 47.7101 186.128 47.6743 185.984 47.6751C185.2 47.6783 184.412 47.7221 183.636 47.6592C182.841 47.5947 182.345 47.0755 181.964 46.4998C181.431 45.6963 180.943 44.8689 180.429 44.0551C180.208 43.7048 179.933 43.3799 179.522 43.2063C179.077 43.0183 178.802 43.0693 178.837 43.6275C178.887 44.3983 178.887 45.1763 178.837 45.9471C178.802 46.5061 179.028 46.7816 179.643 46.7848C180.09 46.7872 180.297 46.9242 180.245 47.3693C180.187 47.8662 179.79 47.6647 179.539 47.6687C178.105 47.6886 176.668 47.6822 175.234 47.6751C174.979 47.6735 174.647 47.7905 174.628 47.3486C174.612 46.9656 174.732 46.7864 175.176 46.7928C175.837 46.8023 176.029 46.5037 176.022 45.9129C175.991 43.4053 176.008 40.897 176.033 38.3887C176.038 37.8799 175.872 37.5956 175.267 37.5908C174.868 37.5876 174.575 37.5144 174.627 37.0302C174.686 36.484 175.116 36.7093 175.384 36.7053C177.054 36.6846 178.726 36.6918 180.396 36.6974C180.734 36.6982 181.077 36.7045 181.409 36.7523C183.151 37.0016 183.979 37.6665 184.205 38.974C184.493 40.6311 183.894 41.7897 182.384 42.5063C182.317 42.5382 182.259 42.5868 182.137 42.6664L182.14 42.6672ZM178.85 39.9112C178.85 40.4742 178.882 41.0396 178.839 41.6002C178.806 42.0174 179.024 42.0485 179.386 42.0238C181.078 41.9059 181.914 40.5857 181.364 38.8864C181.109 38.0957 180.466 37.6832 179.555 37.7158C179.088 37.7326 178.77 37.8249 178.836 38.3648C178.899 38.8744 178.85 39.396 178.85 39.912V39.9112Z" fill="white"/>
<path d="M202.914 41.9826C202.913 43.7802 202.596 45.483 201.268 46.7951C199.549 48.4944 197.469 48.7272 195.295 48.0254C193.207 47.3521 192.279 45.6623 191.98 43.5612C191.807 42.3456 191.838 41.1282 192.164 39.9402C192.918 37.1985 195.325 35.6682 198.285 36.0234C200.962 36.345 202.779 38.3831 202.913 41.2222C202.925 41.4757 202.915 41.7291 202.915 41.9835L202.914 41.9826ZM200.068 42.7404C200.068 42.3094 200.1 41.8757 200.062 41.4489C199.962 40.3325 199.772 39.2349 199.145 38.2745C198.609 37.4546 197.842 37.1158 196.893 37.2322C196.018 37.3391 195.39 37.8486 195.131 38.6814C194.374 41.1222 194.501 43.5379 195.576 45.858C195.99 46.7503 196.746 47.2202 197.768 47.1279C198.783 47.0357 199.388 46.4253 199.746 45.5114C200.094 44.6217 200.097 43.6785 200.069 42.7413L200.068 42.7404Z" fill="white"/>
<path d="M159.432 41.9826C159.43 43.7802 159.113 45.483 157.786 46.7951C156.067 48.4944 153.986 48.7272 151.812 48.0254C149.725 47.3521 148.797 45.6623 148.497 43.5612C148.323 42.3456 148.355 41.1282 148.681 39.9402C149.434 37.1985 151.841 35.6682 154.802 36.0234C157.48 36.3441 159.296 38.3831 159.43 41.2222C159.442 41.4757 159.432 41.7291 159.432 41.9835V41.9826ZM156.585 42.6542C156.585 42.2482 156.616 41.8395 156.579 41.4377C156.476 40.3212 156.286 39.2229 155.656 38.265C155.117 37.4468 154.346 37.1132 153.399 37.2339C152.525 37.3451 151.903 37.8581 151.644 38.6918C150.885 41.1343 151.026 43.5491 152.099 45.8675C152.512 46.7607 153.275 47.2236 154.296 47.1262C155.31 47.0296 155.913 46.4158 156.266 45.4993C156.619 44.5837 156.621 43.6164 156.585 42.6534V42.6542Z" fill="white"/>
<path d="M124.926 32.5286C124.926 25.7318 124.926 18.9343 124.926 12.1375C124.926 11.1238 125.012 11.0531 125.932 11.1646C126.19 11.1962 126.318 11.286 126.305 11.5845C126.298 11.7666 126.305 11.9488 126.305 12.1309C126.305 25.7252 126.305 39.3187 126.305 52.913C126.305 53.8219 126.007 54.0622 125.198 53.841C124.997 53.7861 124.929 53.6714 124.929 53.466C124.928 53.2572 124.926 53.0493 124.926 52.8414C124.926 46.0705 124.926 39.2995 124.926 32.5286Z" fill="white"/>
<path d="M174.126 28.3674C172.649 28.3674 171.172 28.3658 169.695 28.3683C169.381 28.3683 169.074 28.4261 169.1 27.9311C169.121 27.5468 169.098 27.235 169.641 27.2521C170.44 27.2773 170.708 26.8971 170.697 26.0886C170.654 22.9827 170.672 19.8759 170.707 16.7691C170.716 16.0803 170.505 15.7408 169.781 15.718C169.487 15.7091 169.105 15.7766 169.118 15.2255C169.13 14.75 169.22 14.5733 169.752 14.5831C171.591 14.6173 173.431 14.5896 175.271 14.6035C175.556 14.6059 175.974 14.4154 175.977 15.0081C175.979 15.4665 175.898 15.6692 175.359 15.7083C173.964 15.8108 173.966 15.8458 173.966 17.2112C173.965 20.0631 173.963 22.9151 173.967 25.7679C173.968 26.8442 174.119 26.9834 175.233 26.9891C175.415 26.9899 175.596 26.9891 175.778 26.9891C177.049 26.9891 177.849 26.3763 178.18 25.1507C178.276 24.7982 178.21 24.3146 178.868 24.3724C179.284 24.4091 179.46 24.4994 179.451 24.9448C179.433 25.9128 179.4 26.8759 179.267 27.8374C179.212 28.2412 179.081 28.3902 178.634 28.3797C177.132 28.3463 175.629 28.3666 174.126 28.3666V28.3674Z" fill="white"/>
<path d="M225.209 43.3326C225.877 43.3326 226.545 43.3196 227.212 43.3403C227.415 43.3464 227.758 43.1755 227.753 43.6208C227.751 43.9021 227.874 44.2541 227.411 44.3111C227.027 44.3586 226.983 44.6356 226.984 44.9755C226.989 45.7366 226.949 46.4986 226.952 47.2597C226.952 47.5988 226.901 47.8231 226.519 47.9241C224.772 48.3875 223.012 48.5972 221.241 48.145C218.956 47.5617 217.623 45.8635 217.442 43.2152C217.262 40.5764 217.876 38.231 220.314 36.8426C222.235 35.7493 224.3 35.8287 226.378 36.3067C226.596 36.3568 226.74 36.4362 226.743 36.695C226.755 37.5321 226.772 38.3691 226.799 39.2061C226.811 39.5858 226.545 39.5754 226.303 39.6186C226.066 39.6609 225.849 39.6764 225.81 39.3442C225.801 39.2691 225.776 39.1958 225.751 39.1241C225.511 38.4183 225.624 37.4535 224.6 37.2956C223.357 37.1041 222.169 37.2024 221.256 38.2509C220.524 39.0905 220.323 40.1406 220.225 41.2098C220.107 42.5102 220.199 43.8003 220.641 45.0377C221.135 46.4183 222.276 47.1794 223.67 47.1578C224.161 47.1501 224.342 46.9447 224.333 46.4779C224.328 46.2492 224.335 46.0205 224.335 45.7919C224.335 44.4207 224.337 44.4026 223.034 44.28C222.658 44.2447 222.544 44.1325 222.538 43.7424C222.532 43.3006 222.77 43.3222 223.055 43.3317C223.426 43.3446 223.797 43.3515 224.169 43.3559C224.515 43.3602 224.862 43.3559 225.208 43.3559C225.208 43.3481 225.208 43.3395 225.208 43.3317L225.209 43.3326Z" fill="white"/>
<path d="M237.493 47.6999C236.734 47.6999 235.976 47.6887 235.218 47.7055C234.89 47.7126 234.763 47.6107 234.779 47.3032C234.793 47.0547 234.787 46.8883 235.153 46.8309C236.493 46.6223 236.49 46.6031 236.009 45.3686C235.657 44.4676 234.968 44.017 233.943 44.017H233.791C231.566 44.017 231.535 44.0513 231.045 46.1324C230.95 46.5378 230.983 46.7624 231.493 46.7672C231.719 46.7696 231.945 46.8405 232.169 46.8365C232.519 46.8301 232.579 46.9942 232.577 47.2746C232.574 47.5493 232.53 47.7102 232.171 47.7055C231.059 47.6895 229.947 47.6959 228.835 47.7023C228.596 47.7039 228.428 47.6545 228.471 47.3964C228.505 47.1941 228.316 46.8763 228.723 46.8437C229.294 46.7983 229.445 46.416 229.603 46.0058C230.646 43.3217 231.724 40.648 232.724 37.9504C232.975 37.2718 233.332 36.9444 234.098 36.8019C235.373 36.5653 235.364 36.5096 235.794 37.635C236.856 40.4122 237.918 43.1895 238.977 45.9684C239.141 46.3969 239.291 46.8222 239.904 46.8437C240.332 46.8588 240.142 47.175 240.178 47.3733C240.233 47.6816 240.022 47.7047 239.766 47.7023C239.007 47.6951 238.25 47.6999 237.491 47.6999H237.493ZM232.273 42.8717H235.021C234.561 41.6874 234.123 40.558 233.619 39.2598C233.126 40.5827 232.71 41.6993 232.273 42.8717H232.273Z" fill="white"/>
<path d="M276.254 47.6983C274.999 47.6983 273.743 47.7007 272.487 47.6959C272.245 47.6951 271.938 47.7766 271.947 47.3828C271.954 47.0888 271.911 46.8037 272.394 46.8229C273.201 46.8548 273.354 46.445 273.347 45.8012C273.317 43.3314 273.322 40.8608 273.351 38.391C273.358 37.8199 273.101 37.5786 272.51 37.5715C272.096 37.5659 271.92 37.4293 271.94 37.0235C271.965 36.5259 272.349 36.688 272.613 36.6872C274.968 36.6768 277.321 36.6936 279.675 36.6704C280.142 36.6657 280.339 36.7775 280.343 37.2C280.349 37.8814 280.366 38.5635 280.419 39.2425C280.445 39.5908 280.282 39.6922 279.939 39.7186C279.606 39.7433 279.42 39.6778 279.315 39.3495C278.709 37.4532 279.201 37.8406 276.651 37.7847C276.277 37.7767 276.154 37.8814 276.162 38.2217C276.186 39.1155 276.192 40.0101 276.161 40.9031C276.147 41.3105 276.295 41.4367 276.738 41.4112C277.52 41.3656 278.305 41.3553 279.089 41.3449C279.374 41.3409 279.833 41.2243 279.732 41.6907C279.646 42.0893 279.824 42.7259 278.971 42.6892C278.215 42.6565 277.457 42.6525 276.7 42.6093C276.305 42.587 276.146 42.6796 276.16 43.0686C276.192 43.9856 276.175 44.9034 276.169 45.8212C276.165 46.3396 276.407 46.6232 277.015 46.5888C277.068 46.5856 277.12 46.5896 277.172 46.5888C279.404 46.5513 279.248 46.9099 279.859 44.8914C279.987 44.4673 280.241 44.5671 280.545 44.5599C280.973 44.5511 280.91 44.8083 280.905 45.036C280.89 45.7645 280.854 46.4906 280.749 47.2158C280.691 47.6192 280.512 47.7119 280.098 47.7055C278.817 47.6855 277.535 47.6983 276.253 47.6983H276.254Z" fill="white"/>
<path d="M267.66 37.8722C266.57 37.6857 265.573 37.7102 264.573 37.8384C264.273 37.8773 264.097 38.0351 264.018 38.3338C263.917 38.7153 263.781 39.0883 263.7 39.4739C263.632 39.7921 263.527 39.9254 263.171 39.8841C262.828 39.8444 262.717 39.7271 262.73 39.382C262.759 38.6629 262.766 37.9422 262.763 37.2224C262.761 36.8004 262.961 36.6629 263.343 36.6637C265.388 36.6713 267.433 36.6502 269.478 36.6755C270.276 36.6856 270.718 37.603 270.301 38.2916C268.668 40.982 267.033 43.6708 265.407 46.3646C265.287 46.5637 265.09 46.7384 265.102 47.103C266.229 47.103 267.349 47.1022 268.469 47.103C268.868 47.103 269.089 46.8608 269.208 46.5089C269.34 46.1114 269.471 45.7088 269.552 45.2978C269.627 44.9198 269.834 44.9299 270.132 44.9468C270.489 44.967 270.593 45.1274 270.548 45.4582C270.541 45.5071 270.551 45.5578 270.546 45.6067C270.457 46.4675 270.724 47.557 270.202 48.1258C269.731 48.6389 268.7 48.2609 267.918 48.2752C266.379 48.3022 264.839 48.2887 263.3 48.2811C262.47 48.2769 262.014 47.4541 262.435 46.7393C264.156 43.8159 265.879 40.8943 267.661 37.8705L267.66 37.8722Z" fill="white"/>
<path d="M143.543 42.1351C143.543 43.4041 143.571 44.6739 143.53 45.9414C143.512 46.4997 143.712 46.7788 144.304 46.782C144.738 46.7844 144.933 46.9328 144.88 47.3739C144.822 47.87 144.435 47.6618 144.197 47.6658C142.843 47.6873 141.489 47.6833 140.135 47.6698C139.882 47.6674 139.513 47.8317 139.489 47.334C139.47 46.9344 139.62 46.79 140.029 46.786C140.596 46.7804 140.831 46.5475 140.825 45.9605C140.795 43.3762 140.816 40.7912 140.838 38.2069C140.842 37.8264 140.752 37.682 140.307 37.6757C138.845 37.6557 138.814 37.6637 138.437 39.0197C138.363 39.2853 138.45 39.6705 137.937 39.6617C137.577 39.6553 137.32 39.625 137.352 39.1768C137.399 38.5219 137.391 37.8631 137.392 37.2059C137.392 36.7879 137.582 36.6619 138.036 36.6651C140.795 36.6858 143.554 36.6898 146.313 36.6627C146.821 36.6579 146.979 36.8278 146.98 37.2553C146.982 37.8894 147 38.5227 147.011 39.1568C147.015 39.4209 147.038 39.6498 146.607 39.6585C146.243 39.6657 146.028 39.6043 145.975 39.2486C145.957 39.1329 145.931 39.0173 145.898 38.904C145.558 37.698 145.181 37.4898 143.86 37.6781C143.452 37.7363 143.545 37.974 143.545 38.1861C143.538 39.5022 143.541 40.8183 143.541 42.1335L143.543 42.1351Z" fill="white"/>
<path d="M257.506 36.6928C258.222 36.6928 258.939 36.6944 259.654 36.692C259.942 36.6912 260.222 36.653 260.199 37.0674C260.183 37.3559 260.173 37.5782 259.768 37.5647C258.996 37.5384 258.815 37.9145 258.824 38.572C258.858 41.0337 258.852 43.4962 258.818 45.9579C258.811 46.5197 259.019 46.7779 259.615 46.7939C259.981 46.8042 260.222 46.8776 260.204 47.3151C260.183 47.8642 259.771 47.6729 259.496 47.6761C258.115 47.6928 256.733 47.6912 255.352 47.6769C255.096 47.6745 254.715 47.8418 254.692 47.3446C254.672 46.9509 254.814 46.7907 255.238 46.7963C255.895 46.805 256.064 46.4934 256.057 45.9093C256.027 43.4006 256.043 40.8918 256.069 38.3831C256.074 37.8683 255.901 37.5933 255.314 37.5886C254.919 37.5854 254.638 37.5065 254.69 37.0251C254.749 36.4784 255.169 36.7159 255.435 36.7032C256.124 36.6705 256.816 36.692 257.506 36.692V36.6928Z" fill="white"/>
</svg>
