<svg width="39" height="39" viewBox="0 0 39 39" fill="none" xmlns="http://www.w3.org/2000/svg">
<path d="M0.00161042 19.5915C0.00161042 17.0253 0.00161042 14.4591 0.00161042 11.8913C0.00161042 10.8433 0.512114 10.3201 1.52668 10.3119C2.56379 10.3036 2.43496 10.441 2.44462 9.37149C2.44784 8.97911 2.43979 8.58508 2.44623 8.1927C2.45911 7.44934 2.92292 6.93776 3.64438 6.86326C3.78288 6.84836 3.9246 6.85498 4.0647 6.85498C8.82833 6.85498 13.592 6.85498 18.3556 6.85498C18.4957 6.85498 18.6374 6.84836 18.7759 6.86492C19.2075 6.91624 19.4845 7.21259 19.507 7.63146C19.5312 8.08675 19.3009 8.44435 18.8854 8.54203C18.6906 8.58839 18.4812 8.58839 18.2783 8.58839C13.7433 8.59005 9.21 8.59005 4.67505 8.59005C4.27138 8.59005 4.06954 8.80141 4.06954 9.22414C4.06954 9.94819 4.41685 10.3102 5.11148 10.3102C9.13592 10.3102 13.162 10.3102 17.1864 10.3102C17.3394 10.3102 17.494 10.3036 17.6438 10.3218C18.0995 10.3748 18.4071 10.7026 18.4264 11.1413C18.4442 11.5718 18.1172 11.9658 17.6695 12.0337C17.5069 12.0585 17.3394 12.0502 17.1735 12.0502C12.2054 12.0502 7.23885 12.0502 2.27069 12.0502C1.69577 12.0502 1.69416 12.0502 1.69416 12.6363C1.69416 17.2985 1.69416 21.959 1.69416 26.6211C1.69416 27.2039 1.69416 27.2056 2.27231 27.2056C5.44323 27.2056 8.61576 27.2056 11.7867 27.2056C11.9139 27.2056 12.0411 27.2023 12.1683 27.2089C12.6789 27.2337 13.0251 27.5499 13.0509 28.0102C13.0782 28.4804 12.7384 28.8678 12.236 28.9307C12.0975 28.9473 11.9558 28.9439 11.8157 28.9439C8.42734 28.9439 5.03901 28.9439 1.65068 28.9439C0.4944 28.9439 0 28.4357 0 27.2486C0 24.6957 0 22.1411 0 19.5882L0.00161042 19.5915Z" fill="#0C5585"/>
<path d="M28.8795 28.9469C26.1917 28.9469 23.5039 28.9469 20.8161 28.9453C20.6261 28.9453 20.4312 28.9387 20.2476 28.8956C19.8289 28.7963 19.5745 28.4519 19.5938 28.048C19.6131 27.6291 19.9143 27.2864 20.3362 27.2251C20.4989 27.2019 20.6663 27.2102 20.8322 27.2102C25.9775 27.2102 31.1244 27.2102 36.2697 27.2102C36.8463 27.2102 36.8479 27.2102 36.8479 26.6258C36.8479 21.9636 36.8479 17.3015 36.8479 12.641C36.8479 12.0566 36.8479 12.0549 36.2713 12.0549C32.7944 12.0549 29.3159 12.0549 25.839 12.0549C25.037 12.0549 24.6296 11.7552 24.6393 11.1741C24.6489 10.6029 25.0435 10.3149 25.8213 10.3149C28.522 10.3149 31.2227 10.3149 33.9217 10.3149C34.4741 10.3149 34.4757 10.3116 34.4773 9.747C34.4773 9.52515 34.4612 9.29999 34.4805 9.07979C34.516 8.69404 34.3485 8.58808 33.991 8.58974C31.7235 8.60133 29.456 8.59967 27.1886 8.58974C26.955 8.58974 26.7054 8.54007 26.4912 8.4457C26.1611 8.29835 26.0532 7.98213 26.0774 7.63115C26.1015 7.28347 26.2996 7.04176 26.6136 6.9358C26.802 6.87288 27.013 6.86295 27.2143 6.86295C29.6847 6.85798 32.1567 6.85964 34.6271 6.85964C35.6658 6.85964 36.1667 7.38281 36.1683 8.4606C36.1683 8.89271 36.1683 9.32482 36.1683 9.75693C36.1683 10.3149 36.1715 10.3149 36.7319 10.3182C36.8334 10.3182 36.9364 10.3182 37.0379 10.3182C38.009 10.3231 38.5324 10.8562 38.5388 11.843C38.5404 12.1973 38.5388 12.5499 38.5388 12.9042C38.5388 17.7104 38.5388 22.5166 38.5388 27.3211C38.5388 28.4188 38.0186 28.9503 36.9397 28.9519C34.2519 28.9519 31.5641 28.9519 28.8763 28.9519L28.8795 28.9469Z" fill="#0C5585"/>
<path d="M13.3388 38.5414C12.627 38.5397 12.2388 37.9487 12.474 37.2037C13.2196 34.8378 13.9717 32.4736 14.7221 30.1078C16.3857 24.8678 18.0509 19.6295 19.716 14.3895C20.9061 10.6429 22.0946 6.89797 23.2831 3.15136C23.536 2.35502 23.7791 1.55537 24.0368 0.76068C24.2349 0.153077 24.7051 -0.116785 25.2462 0.0471187C25.7422 0.197778 25.987 0.715979 25.8115 1.32689C25.6005 2.0686 25.3622 2.80037 25.1287 3.53546C23.6954 8.04034 22.2605 12.5436 20.8288 17.0484C19.7015 20.5947 18.5791 24.1427 17.455 27.6906C16.3905 31.0515 15.326 34.4123 14.2599 37.7732C14.0796 38.3427 13.8299 38.5414 13.3388 38.5397V38.5414Z" fill="#0C5585"/>
<path d="M26.6008 26.1218C24.9066 26.1218 23.2125 26.1218 21.5183 26.1218C21.1221 26.1218 20.7888 26.0125 20.5955 25.6235C20.2992 25.0208 20.6567 24.3851 21.3122 24.3801C22.4459 24.3685 23.5796 24.3768 24.7134 24.3768C26.5605 24.3768 28.4077 24.3702 30.2532 24.3834C30.5914 24.3867 30.7815 24.2907 30.9119 23.948C31.3837 22.7179 32.2453 21.8636 33.4242 21.352C33.6834 21.2394 33.7962 21.0921 33.7897 20.7957C33.7736 20.0623 33.7768 19.3289 33.7881 18.5955C33.7913 18.3372 33.7076 18.1965 33.4612 18.1004C32.2808 17.6385 31.4562 16.7726 30.9522 15.6005C30.7879 15.218 30.585 15.1121 30.2049 15.1154C28.3578 15.132 26.5106 15.1253 24.6651 15.1187C24.467 15.1187 24.1997 15.1237 24.0869 15.0045C23.8888 14.7959 23.7036 14.5045 23.6666 14.2263C23.6215 13.8869 23.855 13.6022 24.1836 13.4813C24.3704 13.4118 24.5813 13.3886 24.781 13.3886C27.0743 13.382 29.3659 13.3919 31.6591 13.377C32.044 13.3737 32.189 13.4929 32.2357 13.8936C32.4112 15.43 33.619 16.6799 35.0781 16.7594C35.3856 16.776 35.4887 16.9415 35.4871 17.2445C35.4807 18.9332 35.4807 20.6219 35.4871 22.3123C35.4871 22.6037 35.3905 22.7295 35.0974 22.7609C33.8251 22.8984 32.9104 23.5573 32.4257 24.7924C32.3371 25.0192 32.3017 25.2725 32.2598 25.5159C32.1535 26.1218 32.1584 26.1235 31.5673 26.1235C29.9118 26.1235 28.2563 26.1235 26.6008 26.1235V26.1218Z" fill="#0C5585"/>
<path d="M11.5789 13.2986C13.2215 13.2986 14.8657 13.2969 16.5084 13.2986C17.0382 13.2986 17.3249 13.5122 17.4247 13.9509C17.5713 14.5966 17.2202 15.0403 16.5438 15.0419C13.7546 15.0452 10.9637 15.0502 8.17444 15.037C7.78633 15.0353 7.56087 15.1214 7.39822 15.5303C6.92476 16.7224 6.07445 17.5617 4.91656 18.0601C4.68144 18.1611 4.59286 18.3167 4.59447 18.5733C4.60414 19.3332 4.60092 20.0932 4.59447 20.8514C4.59286 21.0882 4.66533 21.2372 4.89562 21.3315C6.09539 21.8216 6.92637 22.7057 7.42076 23.9209C7.53994 24.2123 7.7042 24.305 7.99891 24.3033C9.73172 24.2934 11.4645 24.2951 13.1957 24.3033C13.6418 24.3033 13.9108 24.5351 14.0219 24.9705C14.1105 25.3116 13.9736 25.6907 13.6354 25.8695C13.4405 25.9738 13.199 26.0318 12.9783 26.0318C10.851 26.0434 8.7236 26.0351 6.59623 26.0434C6.27737 26.0434 6.15336 25.9142 6.10344 25.593C5.8345 23.8679 4.93588 22.9375 3.28037 22.6676C2.95668 22.6146 2.82301 22.4789 2.82623 22.1312C2.8375 20.4673 2.83911 18.8051 2.82623 17.1412C2.82301 16.8035 2.95023 16.676 3.26105 16.6445C4.20797 16.5502 5.02768 16.1694 5.53174 15.3168C5.79585 14.8714 5.95367 14.3449 6.08572 13.835C6.221 13.3135 6.18074 13.3002 6.72345 13.3002C8.34193 13.3002 9.95879 13.3002 11.5773 13.3002L11.5789 13.2986Z" fill="#0C5585"/>
<path d="M26.4122 20.1744C26.5136 21.83 24.6939 23.7919 22.2863 23.2869C22.0173 23.2306 21.9062 23.1098 22.0012 22.8233C22.0995 22.5253 22.188 22.224 22.2686 21.921C22.3394 21.6528 22.4618 21.5436 22.763 21.5916C23.6825 21.7373 24.4877 21.1578 24.71 20.2307C24.8871 19.489 24.5409 18.6993 23.8081 18.292C23.5472 18.1479 23.4909 18.0138 23.5939 17.7407C23.7051 17.4493 23.7856 17.143 23.8645 16.84C23.9466 16.5255 24.1109 16.4973 24.3766 16.6248C25.7133 17.2622 26.3864 18.3334 26.4122 20.1727V20.1744Z" fill="#0C5585"/>
<path d="M11.4727 19.7051C11.4791 17.3806 13.4454 15.6903 15.5647 16.0661C15.969 16.1373 16.0157 16.2134 15.8965 16.6108C15.8594 16.7349 15.8176 16.8591 15.7773 16.9833C15.6968 17.23 15.6791 17.5528 15.5148 17.7001C15.3828 17.8177 15.0703 17.7134 14.8384 17.72C14.1105 17.7415 13.4422 18.2945 13.2232 19.0544C13.0251 19.7382 13.3134 20.5494 13.9108 20.9915C14.2501 21.2431 14.3553 21.5776 14.2265 21.9948C14.191 22.1073 14.1556 22.2183 14.1186 22.3292C13.9157 22.9583 13.8657 22.9798 13.3021 22.6736C12.0959 22.0163 11.5596 20.9385 11.4727 19.7034V19.7051Z" fill="#0C5585"/>
</svg>
