<svg width="236" height="42" viewBox="0 0 236 42" fill="none" xmlns="http://www.w3.org/2000/svg">
<g clip-path="url(#clip0_3_267)">
<path d="M49.289 4.24301C50.9836 3.34153 52.7328 2.60912 54.6839 2.40742C56.1686 2.25402 57.6039 2.40807 58.9827 2.95183C60.532 3.56348 61.8594 4.51196 63.0335 5.66345C63.3187 5.94283 63.6019 6.24963 63.6279 6.77707C62.4418 6.19545 61.3443 5.5701 60.0915 5.32205C60.0408 5.32661 59.9902 5.33118 59.9396 5.33575C59.9662 5.3586 59.9935 5.38079 60.0202 5.40364C60.2074 5.93696 60.7339 6.30969 60.7885 6.97748C59.9216 6.67524 59.0979 6.35669 58.255 6.10211C57.4227 5.85079 56.5697 5.6641 55.6548 5.57793C56.0226 5.88735 56.3938 6.1935 56.757 6.50813C56.8736 6.60931 57.0855 6.69026 56.9842 6.88935C56.8923 7.07017 56.683 6.99706 56.5297 6.9827C56.1772 6.95071 55.8287 6.87173 55.4762 6.84105C54.1242 6.72289 52.8101 6.92003 51.526 7.33258C51.3967 7.37436 51.2354 7.37632 51.1535 7.6074C52.5529 7.56171 53.9109 7.67529 55.249 7.97883C58.3023 8.67077 60.5766 10.3353 61.9647 13.1077C62.3232 13.8231 62.1906 14.4948 61.7654 15.1358C61.6188 15.3571 61.4722 15.4022 61.3069 15.1378C61.1264 14.8493 60.9231 14.5744 60.6519 14.1795C60.6492 15.0138 60.5833 15.6946 60.0828 16.3448C58.9966 14.8055 57.9018 13.3074 56.2679 12.2003C56.3292 12.964 56.7463 13.5855 56.787 14.425C54.9338 12.9516 53.1579 11.5828 51.0562 10.6735C52.7621 12.4725 53.675 14.5836 53.6804 17.0152C53.6857 19.3318 53.5691 21.6446 51.8418 23.4959C51.7992 22.3157 52.275 21.1929 52.1704 19.9996C51.8798 20.0238 51.7985 20.2411 51.6406 20.3587C51.404 20.5349 51.1868 20.9572 50.9309 20.8228C50.6904 20.6968 50.8669 20.2601 50.8989 19.967C50.9889 19.1347 51.1328 18.307 51.1082 17.4662C51.1022 17.2501 51.1495 17.0204 50.9822 16.788C50.6664 17.0315 50.5991 17.4114 50.3858 17.694C50.2945 17.8154 50.2859 18.0628 50.074 18.01C49.9034 17.9675 49.902 17.7463 49.8834 17.5935C49.7821 16.7828 49.6975 15.9701 49.6015 15.1587C49.5155 14.4334 49.3523 13.7304 48.9351 12.9634C48.7226 13.5744 48.548 14.0757 48.3261 14.7135C47.6251 13.4517 47.6131 12.0671 46.7868 11.0057C46.5049 11.2016 46.4516 11.4731 46.3436 11.7088C44.4365 15.8911 43.2983 20.2914 42.4307 24.7727C42.2061 25.9333 42.3487 27.0953 42.2761 28.2552C42.1921 29.5993 42.2328 30.9512 42.1622 32.2965C42.1302 32.9023 42.3347 33.1047 42.9338 33.025C43.2417 32.9839 43.5695 32.9702 43.8727 33.0263C44.9443 33.2241 45.5153 32.7561 45.9845 31.8331C46.6415 30.5386 47.4811 29.3336 48.2135 28.0744C48.4633 27.6442 48.7072 27.4373 49.165 27.8003C49.2123 27.8375 49.2783 27.8518 49.3343 27.8792C50.7297 28.5607 50.747 28.5699 51.52 27.2069C53.3112 24.0488 55.0837 20.8809 56.8656 17.7175C56.9755 17.5217 57.0802 17.3174 57.2234 17.1457C57.7565 16.5073 58.149 16.5334 58.5808 17.2149C59.4811 18.6366 60.382 20.0577 61.3323 21.5571C61.8694 20.7882 62.3965 20.091 62.8576 19.3547C63.1615 18.8697 63.4513 19.0055 63.7519 19.2881C63.9284 19.4539 64.0531 19.6772 64.1837 19.8854C66.1155 22.9652 68.0439 26.0469 69.9751 29.128C70.2643 29.5893 70.613 29.6354 71.0213 29.2664C71.1286 29.1691 71.2279 29.0634 71.3345 28.9654C72.1041 28.2572 72.4733 28.2676 73.153 29.0895C74.5724 30.805 75.9757 32.5341 77.3798 34.262C77.7216 34.6824 78.0688 34.9912 78.6865 35.0636C79.7954 35.1935 80.7536 35.8078 81.7811 36.2001C85.047 37.4469 88.2962 38.7335 91.5495 40.0117C91.7154 40.0769 91.9233 40.0906 92.0239 40.2767C91.5681 40.5613 8.10736 40.6148 3.43211 40.3041C3.86325 40.1644 4.31372 40.1448 4.76485 40.1337C5.50652 40.1148 5.59181 40.0338 5.37858 39.2884C5.02473 38.0494 4.55028 36.849 3.99386 35.6838C2.78507 33.1517 1.26041 30.7749 0.136916 28.2004C0.116925 28.1541 0.0476224 28.1279 0.000976562 28.0927C0.000976562 27.8472 0.000976562 27.6018 0.000976562 27.3564C0.21688 27.0045 0.544068 26.9275 0.938558 26.9647C1.69156 27.0352 2.41057 27.2571 3.13891 27.4327C3.43411 27.5039 3.63202 27.5228 3.76996 27.1762C4.87747 24.3967 6.86858 22.268 9.09625 20.3123C10.7582 18.8534 12.5227 17.568 14.7264 16.991C15.2802 16.8461 15.8372 16.724 16.455 16.8363C16.3344 17.1242 16.2291 17.3657 16.1311 17.6105C15.1029 20.187 15.1822 22.7223 16.4836 25.1879C16.6995 25.5971 16.7202 25.8935 16.4996 26.3074C15.6587 27.8858 15.5087 29.5732 15.7939 31.3122C15.8232 31.4923 15.8186 31.6882 16.0412 31.7658C16.5063 31.929 16.9241 32.2136 17.5145 32.3227C17.3372 27.4699 17.162 22.6642 16.9861 17.8579C17.2659 18.0922 17.3026 18.3886 17.3332 18.6751C17.6158 21.2934 17.9303 23.9097 18.1395 26.5339C18.2002 27.2924 18.4327 27.7591 19.2244 27.9778C19.9234 24.6839 22.1764 22.9717 25.4809 22.3587C24.3754 22.0408 23.3112 22.3072 22.1124 22.5043C22.3717 22.1192 22.5343 21.8763 22.7788 21.5128C21.9379 21.7817 21.2595 22.067 20.6011 22.4129C20.3559 22.5415 20.048 22.8849 19.8455 22.7073C19.5942 22.4867 19.9801 22.1864 20.0474 21.909C20.0667 21.828 20.0993 21.7575 20.0154 21.6642C19.355 22.0487 18.6893 22.4364 17.933 22.877C18.0129 22.2869 18.3508 21.9658 18.5887 21.595C18.8226 21.3744 19.0571 21.1537 19.291 20.9337C19.3543 20.8717 19.417 20.8104 19.4803 20.7484C19.5729 20.6792 19.6662 20.61 19.7588 20.5401C19.8148 20.4983 19.8714 20.4572 19.9274 20.4154C19.8301 20.3521 19.7528 20.3593 19.7055 20.4748C19.6009 20.5342 19.4963 20.5943 19.3917 20.6537C19.327 20.7151 19.263 20.7764 19.1984 20.8384C18.9039 20.9951 18.658 21.2073 18.4521 21.4644C18.0223 21.7112 18.0696 21.3117 18.0296 21.1328C17.7497 19.8769 17.6091 18.6053 17.5945 17.3174C17.5891 16.8232 17.7644 16.8715 18.0889 17.0785C19.2757 17.8344 20.4998 18.5302 21.7459 19.1895C21.9259 19.2848 22.0891 19.4141 22.323 19.3671C23.827 19.0655 25.2604 19.4187 26.6857 19.8312C26.7364 19.8358 26.8163 19.8612 26.831 19.8403C26.875 19.7803 26.8203 19.7522 26.7624 19.7398C26.4485 19.433 25.9301 19.4683 25.5669 19.0949C26.2992 18.899 26.9256 18.9924 27.518 19.275C27.9378 19.4748 28.2897 19.5923 28.4596 19.0068C28.4729 18.9617 28.5469 18.9336 28.5929 18.8971C28.8814 19.0838 28.6382 19.4428 28.8728 19.6856C29.058 19.3971 29.2173 19.1373 29.3879 18.8847C30.1742 17.7195 31.2024 16.8539 32.6124 16.5079C34.1544 16.1293 35.6851 16.3317 37.2064 16.6653C37.3483 16.6966 37.5362 16.7423 37.5336 16.9003C37.5302 17.1033 37.3183 17.0406 37.1864 17.0576C36.4827 17.1496 35.8057 17.3174 35.1586 17.6836C35.2366 17.7456 35.2846 17.7776 35.3259 17.8168C35.4518 17.9388 35.7723 17.8964 35.7324 18.1177C35.6957 18.3194 35.4318 18.354 35.2266 18.4167C34.6888 18.5798 34.1584 18.7665 33.6313 18.9617C33.2761 19.0936 32.889 19.1967 32.7024 19.5819C33.0456 19.7744 33.448 19.7783 33.7846 20.0616C33.0729 20.3508 32.3132 20.39 31.7075 20.8724C33.1129 20.5826 34.5176 20.4122 35.9229 20.7803C37.3583 21.157 38.4818 22.0186 39.5133 23.1016C40.213 20.6354 40.964 18.2646 41.8343 15.9296C42.512 14.1103 43.337 12.3498 44.0913 10.5618C44.1173 10.5377 44.1433 10.5142 44.1686 10.49C44.118 10.4848 44.0673 10.4789 44.0167 10.4737C42.7925 10.7864 41.8596 11.5887 40.8454 12.3172C40.5542 11.6546 41.0433 11.1102 41.0527 10.4985C39.1922 10.9372 37.9607 12.2767 36.5067 13.327C36.2461 12.6083 36.6246 11.962 36.5133 11.2433C35.3432 12.3002 34.381 13.4223 33.4447 14.6201C33.0869 14.0653 33.2095 13.4817 33.1522 12.8407C32.1066 13.7167 31.5795 14.863 30.8312 15.8937C30.7499 15.7422 30.6999 15.6737 30.676 15.5973C30.652 15.521 30.6453 15.4367 30.6446 15.3558C30.6293 13.1285 31.2157 11.0899 32.8423 9.47433C35.4472 6.88739 38.6297 6.03553 42.2588 6.6883C42.4754 6.72746 42.6906 6.83191 42.9891 6.65762C41.843 5.80053 40.4609 5.84687 39.1828 5.53354C39.6386 5.29985 40.0904 5.16212 40.5302 4.99305C40.6735 4.93822 40.9127 4.97346 40.9414 4.77633C40.9734 4.55308 40.7421 4.48976 40.5849 4.4049C39.3861 3.75996 38.084 3.51321 36.7319 3.45577C36.5253 3.44728 36.3134 3.43227 36.1155 3.37874C35.9909 3.3448 35.807 3.31738 35.803 3.12873C35.7997 2.97468 35.9549 2.95379 36.0536 2.88786C36.3074 2.71944 36.6306 2.65678 36.8532 2.39632C35.4945 1.75726 34.0571 1.79642 32.5631 1.90739C32.7484 1.55555 32.9982 1.47069 33.2235 1.38387C34.5082 0.890376 35.819 0.483046 37.181 0.23434C37.5555 0.165799 37.962 0.225201 38.3039 0.00195312H39.8105C39.9918 0.235646 40.2703 0.126633 40.4982 0.167757C42.5593 0.541796 44.2079 1.57122 45.544 3.12286C45.8865 3.52039 46.1717 3.97146 46.6275 4.32657C46.928 3.75474 46.4076 3.24427 46.5849 2.66592C47.0007 2.85065 47.1386 3.1914 47.2532 3.52758C47.3805 3.90161 47.5304 3.88268 47.8103 3.65421C48.8099 2.8389 49.9787 2.47792 51.412 2.4727C50.659 3.13526 49.7514 3.42444 49.1924 4.13596C49.1617 4.17578 49.0964 4.23649 49.1064 4.25215C49.1637 4.34354 49.2303 4.28153 49.2923 4.24497L49.289 4.24301ZM25.9187 24.8066C25.1644 25.2956 24.5374 25.9255 23.8916 26.5358C23.6717 26.7434 23.4618 27.1906 23.2259 27.0985C22.9054 26.9732 23.1546 26.5169 23.08 26.2134C23.0727 26.1827 23.0374 26.1579 22.9927 26.103C22.1204 26.8531 21.7659 27.9621 21.0489 28.8512C20.7204 28.4582 20.7797 27.9843 20.5052 27.5685C20.3279 27.9523 20.1733 28.3048 20.004 28.6502C19.8981 28.8656 20.01 28.9726 20.1633 29.111C22.1884 30.942 24.2242 32.762 26.2179 34.625C27.514 35.8365 28.9341 36.9221 30.0789 38.2929C30.5927 38.9078 31.6115 39.0377 32.3385 38.7237C32.5998 38.6108 32.779 38.4483 32.8556 38.161C33.1382 37.1075 33.2921 36.0408 33.2315 34.9514C33.0316 31.333 31.6702 28.0914 29.839 25.0044C29.7091 24.7851 29.6124 24.522 29.3259 24.3849C29.02 24.8301 28.9441 25.3262 28.8801 25.8308C28.8461 26.0972 28.9767 26.5045 28.6602 26.5789C28.4176 26.6357 28.3457 26.2055 28.1537 26.0286C28.1271 26.0038 28.0844 25.996 28.0571 25.9842C27.676 27.0052 27.8699 28.0751 27.8832 29.1639C27.5094 29.0177 27.4314 28.6763 27.1015 28.5849C27.1202 29.4217 27.5174 30.1894 27.5114 31.0857C27.1815 30.9146 26.9316 30.7854 26.5685 30.598C26.8597 31.4851 27.1169 32.2672 27.4161 33.1784C26.4665 32.5067 26.0194 31.6875 25.7315 30.7762C25.1058 28.797 25.0838 26.842 26.0347 24.9378C26.1047 24.8713 26.1933 24.804 26.1033 24.7028C26.0947 24.6931 25.9827 24.7701 25.9194 24.8073L25.9187 24.8066ZM38.6091 24.4078C38.5764 24.5318 38.5544 24.6271 38.5265 24.7205C38.3479 25.3145 38.2972 25.3354 37.7994 24.9078C37.5182 24.6663 37.2803 24.3778 37.0131 24.1199C36.7446 23.8608 36.478 23.5899 36.0369 23.5011C36.0642 24.0024 36.4974 24.3732 36.1975 24.8987C35.2872 24.1787 34.3163 23.6297 33.1635 23.4574C33.0809 23.8072 33.3967 24.0723 33.2248 24.4372C32.5518 24.1728 31.8814 23.9091 31.211 23.646C33.6233 27.5346 35.2939 31.6823 36.9945 36.0121C37.4056 32.2776 38.0787 28.7925 38.9183 25.3367C39.0002 25.0005 39.1348 24.6506 38.6084 24.4078H38.6091ZM64.8913 35.1459C64.9273 35.1074 64.9633 35.0682 64.9993 35.0297C64.9127 34.8045 64.8314 34.578 64.7394 34.3547C63.392 31.085 62.0466 27.814 60.6892 24.5481C60.5106 24.1186 60.3647 23.7119 60.6619 23.285C60.8378 23.0324 60.7019 22.8359 60.5679 22.6179C59.8389 21.4272 59.1233 20.2294 58.3949 19.0387C58.3183 18.9134 58.3003 18.7195 58.0064 18.6921C58.0064 19.7385 58.0024 20.7692 58.0098 21.8C58.0118 22.0389 58.1777 22.2093 58.3309 22.3796C58.8387 22.943 59.0946 23.5977 59.0173 24.349C58.9447 25.0514 59.1206 25.684 59.4938 26.2741C59.801 26.7597 60.1082 27.2454 60.432 27.72C60.7272 28.1527 60.8378 28.6005 60.6859 29.1123C60.442 29.9342 60.2494 30.7723 59.9709 31.5824C59.8236 32.0119 59.9669 32.1941 60.3234 32.4003C61.3656 33.0022 62.3871 33.6393 63.4167 34.262C63.9071 34.5584 64.3989 34.8521 64.89 35.1472L64.8913 35.1459ZM68.0286 36.6903C68.0899 36.6793 68.1506 36.6682 68.2119 36.6577C68.1079 35.4011 68.012 34.1439 67.892 32.8886C67.8734 32.6947 67.7881 32.4754 67.6601 32.3285C66.9071 31.463 67.193 30.5536 67.4829 29.5791C68.7296 30.476 69.5999 31.6966 70.88 32.5178C68.5471 28.8336 66.2141 25.1487 63.8811 21.4644C63.8292 21.4808 63.7772 21.4977 63.7252 21.5141C63.7252 21.875 63.7645 22.2406 63.7179 22.595C63.5839 23.6134 63.9371 24.4594 64.5428 25.2675C65.1339 26.0567 65.6517 26.8981 66.1934 27.7213C66.3334 27.9347 66.53 28.1436 66.3847 28.5013C66.0382 28.2794 65.7096 28.0731 65.3858 27.8603C65.0806 27.6593 64.914 27.6325 64.9353 28.0933C64.958 28.5849 64.9667 29.0699 65.1546 29.5366C66.1148 31.9205 67.071 34.3058 68.0286 36.691V36.6903ZM58.0704 38.5547L58.117 38.4208C57.5126 38.0749 56.9136 37.7178 56.3012 37.3849C55.5562 36.9795 54.9011 36.4697 54.4833 35.7406C53.8216 34.5845 53.1399 33.4324 52.5895 32.2247C51.9518 30.8252 50.643 30.1848 49.4562 29.2037C49.4562 29.5653 49.4816 29.7892 49.4516 30.006C49.3703 30.585 49.5149 30.9786 50.1206 31.2554C50.7537 31.5452 51.1202 32.1464 50.9376 32.8253C50.7776 33.4213 51.0262 33.7294 51.466 33.9559C52.5988 34.5388 52.9967 35.4142 52.9147 36.6597C52.8434 37.7465 52.9453 37.7511 54.0349 37.913C54.4274 37.9711 54.8172 38.0449 55.2083 38.1062C56.1619 38.257 57.1155 38.4052 58.0691 38.5547H58.0704ZM46.9687 38.071C45.8972 37.0252 45.1995 35.8091 44.9762 34.3521C44.9602 34.249 44.9143 34.1393 44.7923 34.1361C44.0893 34.1197 43.3756 33.9474 42.6939 34.2549C42.568 34.3116 42.4427 34.3645 42.444 34.5584C42.4474 35.1452 42.7799 35.5154 43.4103 35.5487C43.7448 35.5663 44.0726 35.6237 44.1999 35.9377C44.6964 37.1597 45.8558 37.5677 46.9687 38.071ZM82.4955 37.6147C81.3087 37.0239 80.0846 36.5304 78.8038 36.1792C78.1534 36.001 77.5264 35.7934 77.0686 35.2673C76.9786 35.1642 76.872 35.0075 76.7161 35.1727C76.2056 35.7125 75.7045 36.2615 75.1994 36.8065C77.7456 36.6453 80.0992 37.3013 82.4955 37.6147ZM72.5226 29.959C72.4326 30.3532 72.2148 30.7841 72.4953 30.9995C72.9471 31.3461 72.8778 31.7652 72.8898 32.2025C72.8951 32.3964 72.8178 32.636 73.075 32.7365C73.8573 33.0433 74.6443 33.3397 75.4293 33.6399C75.456 33.6027 75.4826 33.5649 75.5093 33.5277C74.5137 32.3383 73.5182 31.149 72.5226 29.9596V29.959ZM26.0787 36.4736C26.1053 36.4358 26.132 36.3979 26.1586 36.3594C23.7317 35.0702 21.3055 33.7816 18.8566 32.4806C18.726 32.9852 19.0098 33.0831 19.2817 33.213C21.5494 34.296 23.8137 35.3855 26.0787 36.473V36.4736ZM1.32239 27.8623C1.55428 28.5131 1.84415 28.9707 2.49186 29.1946C3.05228 29.3884 3.19289 29.1776 3.25619 28.7011C3.28818 28.4609 3.26086 28.3244 3.00097 28.2552C2.46654 28.1123 1.94944 27.9001 1.32239 27.8629V27.8623ZM21.2115 35.0969C20.5425 34.6087 19.7821 34.3019 18.9685 34.0988C19.6142 34.6282 20.4585 34.7745 21.2115 35.0969ZM16.273 32.9408C16.4256 33.5042 16.9274 33.4441 17.2879 33.6302C17.3679 33.6713 17.4885 33.747 17.5425 33.6047C17.5838 33.4957 17.5045 33.4141 17.3985 33.373C17.024 33.2274 16.6482 33.0844 16.273 32.9408Z" fill="#0F5686"/>
<path d="M76.6942 10.1593C76.1844 10.2167 75.7533 10.2651 75.3228 10.3134C75.3221 10.3453 75.3215 10.3773 75.3201 10.4093C75.9572 10.4557 76.6002 10.581 77.2299 10.534C79.279 10.3812 81.0449 11.0758 82.7015 12.1509C83.5738 12.7169 84.4041 13.337 85.1577 14.0498C85.2743 14.1601 85.4329 14.2803 85.339 14.4643C85.2617 14.6164 85.0798 14.5753 84.9418 14.5799C83.3752 14.636 81.8086 14.6824 80.2419 14.7365C76.9841 14.8501 73.7268 14.9663 70.4696 15.0838C70.3284 15.089 70.1884 15.1171 70.0491 15.2274C71.885 15.2679 73.7202 15.3077 75.556 15.3488C78.9832 15.4252 82.411 15.5036 85.8381 15.5773C86.3825 15.5891 86.8003 15.8136 87.1115 16.2431C88.7295 18.4763 89.6317 20.9627 89.9236 23.6795C90.2188 26.4296 89.7397 29.0414 88.5869 31.5539C88.4309 31.894 88.2324 32.0265 87.8385 32.0487C86.068 32.146 84.2995 32.2857 82.5302 32.443C83.5898 32.5703 84.652 32.5056 85.7128 32.503C86.2986 32.5017 86.885 32.5122 87.47 32.4848C87.9032 32.4645 87.9298 32.6512 87.7726 32.9561C87.0176 34.4163 85.9987 35.6683 84.6846 36.6893C84.4421 36.8779 84.2142 36.7891 83.9789 36.6958C82.7801 36.2173 81.5833 35.7349 80.3832 35.261C80.0733 35.1389 79.7608 34.9816 79.437 34.9438C78.3508 34.8171 77.6724 34.1741 77.0447 33.3667C75.8819 31.8705 74.6531 30.4227 73.459 28.9493C73.2617 28.7059 73.0431 28.4963 72.7779 28.324C72.2808 28.0009 71.849 27.9532 71.4045 28.45C71.1247 28.7627 70.8128 29.2725 70.4343 29.2183C70.1698 29.1804 69.9858 28.5929 69.7706 28.2483C68.1073 25.5791 66.4468 22.9086 64.7828 20.2401C64.4676 19.7348 64.1658 19.2172 63.672 18.8464C63.3228 18.584 63.0389 18.5167 62.7604 18.973C62.4285 19.5155 62.0194 20.0116 61.6602 20.5384C61.4796 20.8028 61.361 20.8746 61.1245 20.5684C60.694 20.0103 60.3581 19.3999 59.9936 18.8046C59.8397 18.5533 59.915 18.4554 60.1922 18.3849C60.9072 18.2021 61.6316 18.1453 62.3666 18.1512C62.4958 18.1525 62.7051 18.2217 62.7244 18.0259C62.7457 17.8118 62.5492 17.7843 62.3719 17.785C61.9114 17.7883 61.451 17.7791 60.9919 17.7993C60.4581 17.8235 60.4301 17.5892 60.6393 17.2047C61.1738 16.2216 61.8821 15.3547 62.6638 14.5636C66.0882 11.0993 70.3124 9.56071 75.2075 9.71738C75.696 9.73305 76.2084 9.77743 76.6928 10.1593H76.6942ZM63.3575 17.8444C63.3575 17.9031 63.3588 17.9619 63.3595 18.0213C64.4576 18.0827 65.5498 17.9782 66.8213 17.8444H63.3575Z" fill="#EEA449"/>
<path d="M166.809 14.0615C166.809 15.7614 166.802 17.3691 166.813 18.9769C166.817 19.5879 166.879 20.1989 166.885 20.8105C166.889 21.1833 167.011 21.385 167.424 21.3798C167.652 21.3765 167.881 21.4601 168.108 21.4522C168.503 21.4385 168.461 21.6872 168.475 21.9379C168.491 22.2166 168.411 22.3374 168.094 22.3328C166.882 22.3171 165.669 22.3198 164.456 22.3315C164.178 22.3341 164.075 22.2362 164.11 21.9777C164.14 21.7642 163.999 21.5149 164.41 21.4385C165.37 21.2616 165.381 21.2329 165.384 20.3125C165.393 17.9018 165.373 15.4911 165.397 13.0804C165.403 12.4831 165.23 12.1306 164.574 12.1757C164.105 12.2077 164.111 11.9426 164.102 11.6058C164.091 11.1782 164.385 11.2886 164.61 11.2873C165.634 11.2807 166.66 11.3075 167.683 11.2729C168.095 11.2592 168.315 11.3982 168.525 11.7305C170.005 14.0733 171.507 16.4037 173.001 18.738C173.106 18.9018 173.215 19.0637 173.315 19.2158C173.315 17.7262 173.319 16.2496 173.313 14.7731C173.31 14.1399 173.286 13.5073 173.275 12.8741C173.268 12.4805 173.146 12.209 172.666 12.224C172.439 12.2312 172.21 12.1489 171.982 12.1535C171.545 12.1613 171.694 11.8552 171.666 11.6404C171.633 11.3923 171.71 11.2755 172.001 11.2788C173.214 11.2925 174.426 11.2899 175.639 11.2801C175.9 11.2781 176.043 11.3473 176.005 11.6221C175.975 11.8362 176.117 12.0889 175.706 12.1685C174.714 12.3617 174.708 12.3885 174.706 13.4094C174.699 16.1876 174.693 18.9665 174.714 21.7447C174.717 22.2075 174.596 22.3021 174.111 22.3733C172.729 22.5756 171.937 22.043 171.224 20.8863C169.901 18.7386 168.434 16.6746 167.115 14.5204C167.033 14.386 166.941 14.2567 166.811 14.0609L166.809 14.0615Z" fill="#105887"/>
<path d="M144.409 11.2849C146.119 11.3091 147.518 11.1916 148.901 11.5199C150.921 11.9991 152.059 13.1695 152.291 15.1846C152.422 16.323 152.35 17.4641 151.977 18.5725C151.228 20.7991 149.49 21.803 147.272 22.1732C145.47 22.4741 143.644 22.3102 141.829 22.3488C141.587 22.354 141.459 22.2659 141.511 22.0328C141.557 21.8318 141.338 21.553 141.75 21.4486C142.776 21.1881 142.779 21.1699 142.781 20.1261C142.786 17.7376 142.77 15.3491 142.79 12.9606C142.794 12.456 142.642 12.2151 142.102 12.1916C141.868 12.1812 141.499 12.2771 141.511 11.7843C141.521 11.3939 141.607 11.2595 142.028 11.2751C142.925 11.3078 143.824 11.2849 144.409 11.2849H144.409ZM145.42 16.7251C145.427 16.7251 145.434 16.7251 145.441 16.7251C145.441 18.0104 145.464 19.2964 145.43 20.5804C145.416 21.13 145.664 21.2371 146.149 21.2038C147.647 21.1013 148.832 20.2318 149.307 18.8107C149.717 17.5855 149.758 16.3296 149.476 15.0736C149.075 13.287 147.912 12.3927 146.058 12.3848C145.611 12.3829 145.386 12.4638 145.406 12.9919C145.452 14.2348 145.42 15.4803 145.42 16.7251Z" fill="#0F5686"/>
<path d="M129.848 16.7124C129.826 18.6237 129.396 20.3992 127.703 21.567C125.888 22.8184 123.874 22.9378 121.869 22.0664C119.939 21.2276 119.226 19.5526 119.064 17.6158C118.964 16.4069 119.062 15.2064 119.581 14.0771C120.607 11.8433 123.054 10.7532 125.837 11.2813C128.179 11.7258 129.763 13.6274 129.848 16.1007C129.856 16.305 129.849 16.5093 129.849 16.7137L129.848 16.7124ZM127.084 17.3828C127.084 17.138 127.101 16.8919 127.082 16.649C126.984 15.4447 126.861 14.237 126.103 13.2207C125.044 11.7996 122.963 12.0098 122.228 13.6026C121.887 14.3415 121.799 15.1326 121.801 15.9343C121.805 17.4506 121.869 18.9592 122.681 20.3176C123.138 21.082 123.813 21.5128 124.747 21.441C125.719 21.3666 126.358 20.8451 126.714 19.9684C127.053 19.1354 127.1 18.2633 127.084 17.3834V17.3828Z" fill="#105786"/>
<path d="M202.809 16.745C202.842 17.1935 202.785 17.7203 202.681 18.2431C202.283 20.24 201.213 21.7289 199.155 22.3021C197.074 22.8817 195.087 22.7003 193.457 21.1101C192.594 20.2674 192.21 19.189 192.069 18.0323C191.904 16.6791 191.965 15.337 192.546 14.0693C193.572 11.8336 196.021 10.75 198.806 11.282C201.147 11.7291 202.727 13.6339 202.808 16.1086C202.814 16.292 202.808 16.4761 202.808 16.745H202.809ZM200.045 17.3854C200.045 17.1406 200.062 16.8945 200.042 16.6517C199.945 15.4473 199.822 14.2397 199.065 13.2227C198.004 11.7964 195.929 12.0046 195.19 13.6006C194.848 14.3396 194.759 15.1307 194.761 15.9317C194.765 17.4481 194.829 18.9566 195.64 20.315C196.097 21.0794 196.771 21.5116 197.705 21.4411C198.678 21.3673 199.317 20.847 199.675 19.9704C200.014 19.1381 200.061 18.2653 200.045 17.3854Z" fill="#105786"/>
<path d="M215.876 16.6664C215.904 17.2056 215.845 17.7331 215.739 18.2546C215.337 20.2501 214.263 21.7352 212.204 22.3057C210.12 22.8834 208.135 22.6961 206.51 21.102C205.648 20.2573 205.253 19.1783 205.13 18.0209C204.913 15.9895 205.077 14.0025 206.738 12.5337C208.563 10.9207 210.732 10.7425 212.938 11.642C215.186 12.5585 215.844 14.4646 215.875 16.6664H215.876ZM213.105 17.3721C213.105 17.1273 213.122 16.8812 213.103 16.6384C213.01 15.4745 212.874 14.3171 212.194 13.3092C211.691 12.5644 210.968 12.2126 210.055 12.2948C209.16 12.3758 208.559 12.8647 208.219 13.6676C207.91 14.3967 207.818 15.1644 207.821 15.9445C207.826 17.4602 207.891 18.9694 208.707 20.3265C209.166 21.0903 209.845 21.5159 210.778 21.4402C211.751 21.3612 212.386 20.8363 212.739 19.9584C213.076 19.1241 213.121 18.252 213.105 17.3727V17.3721Z" fill="#105786"/>
<path d="M114.49 17.9082C115.201 17.9082 115.912 17.903 116.623 17.9115C116.805 17.9135 117.096 17.8129 117.054 18.1648C117.026 18.392 117.236 18.736 116.801 18.8032C116.372 18.8698 116.293 19.1296 116.301 19.5056C116.317 20.2197 116.283 20.9352 116.291 21.6499C116.295 21.9137 116.221 22.0488 115.941 22.1232C114.224 22.5795 112.489 22.7779 110.738 22.3758C108.509 21.864 107.147 20.3744 106.907 18.0793C106.681 15.9179 107.062 13.9002 108.929 12.4465C110.56 11.1769 112.485 11.0065 114.463 11.2206C116.094 11.3968 116.092 11.4334 116.15 13.0236C116.16 13.3291 116.144 13.6359 116.143 13.942C116.143 14.2083 116.19 14.4694 115.762 14.4864C115.4 14.5008 115.219 14.4531 115.104 14.0536C114.927 13.4433 115.024 12.6064 114.154 12.4086C112.993 12.1449 111.858 12.2082 110.9 13.017C110.051 13.7331 109.778 14.7221 109.67 15.7521C109.541 16.978 109.585 18.2013 110.014 19.3802C110.499 20.7158 111.604 21.4521 113.022 21.4541C113.513 21.4541 113.711 21.2628 113.701 20.8079C113.697 20.6447 113.705 20.4808 113.705 20.3176C113.707 18.9435 113.709 18.9214 112.333 18.7914C111.911 18.7516 111.959 18.5356 111.941 18.2653C111.92 17.9442 112.083 17.8991 112.358 17.9037C113.069 17.9167 113.78 17.9082 114.49 17.9082Z" fill="#115887"/>
<path d="M187.499 17.908C188.21 17.908 188.921 17.9054 189.632 17.91C189.805 17.9113 190.058 17.8473 190.014 18.1495C189.981 18.3767 190.207 18.724 189.777 18.7977C189.317 18.8767 189.25 19.1574 189.262 19.5517C189.281 20.2247 189.241 20.8996 189.255 21.5733C189.261 21.8775 189.2 22.0511 188.858 22.1399C187.2 22.5714 185.526 22.7516 183.834 22.4147C181.643 21.9787 180.269 20.5837 179.917 18.3336C179.459 15.4092 180.49 12.851 183.107 11.7289C184.512 11.1257 185.984 11.05 187.472 11.2262C189.055 11.4142 189.053 11.4436 189.11 13.0089C189.121 13.3144 189.11 13.6212 189.104 13.9274C189.099 14.1826 189.179 14.4705 188.739 14.4836C188.396 14.494 188.188 14.4875 188.069 14.0684C187.896 13.4574 187.994 12.6173 187.13 12.4136C185.971 12.1408 184.841 12.2119 183.872 13.005C183.376 13.411 183.054 13.9424 182.885 14.5403C182.431 16.1527 182.434 17.7722 182.977 19.3637C183.444 20.7345 184.601 21.4845 186.031 21.4512C186.45 21.4414 186.66 21.2933 186.654 20.8827C186.648 20.3526 186.623 19.8219 186.636 19.2919C186.644 18.9616 186.488 18.8708 186.185 18.8656C185.914 18.861 185.643 18.7801 185.375 18.7912C184.974 18.8082 184.904 18.6313 184.896 18.2788C184.888 17.8401 185.161 17.906 185.43 17.9067C186.119 17.908 186.81 17.9067 187.499 17.9067V17.908Z" fill="#115887"/>
<path d="M132.231 36.4801C131.21 37.2184 130.278 37.6629 129.156 37.6166C128.236 37.5781 127.587 37.1714 127.251 36.3313C127.042 35.8077 126.956 35.2594 126.958 34.6967C126.961 33.0622 126.944 31.4276 126.968 29.7937C126.974 29.3414 126.822 29.1175 126.358 29.107C126.076 29.1005 125.892 29.0385 125.903 28.6801C125.915 28.2813 126.179 28.3825 126.39 28.3812C127.491 28.3746 128.594 28.3766 129.695 28.3798C129.896 28.3805 130.14 28.3054 130.138 28.6612C130.137 28.934 130.093 29.0966 129.764 29.0966C129.265 29.0966 129.073 29.3198 129.087 29.8447C129.127 31.3819 129.07 32.9212 129.116 34.4578C129.156 35.7836 129.864 36.2954 131.115 35.9997C131.799 35.8378 132.126 35.4898 132.135 34.7822C132.158 33.0713 132.133 31.3597 132.159 29.6488C132.166 29.2102 131.917 29.1403 131.584 29.1149C131.301 29.0933 131.122 29.0313 131.137 28.6775C131.154 28.2839 131.415 28.3812 131.629 28.3798C132.73 28.3746 133.833 28.3766 134.934 28.3785C135.124 28.3785 135.339 28.3283 135.333 28.6436C135.329 28.8916 135.342 29.1044 134.986 29.0946C134.438 29.079 134.277 29.3557 134.283 29.8786C134.307 31.9166 134.296 33.9545 134.278 35.9931C134.274 36.4122 134.401 36.6433 134.855 36.6466C135.158 36.6492 135.377 36.7112 135.337 37.1074C135.292 37.5559 134.968 37.3633 134.765 37.3718C134.156 37.3966 133.541 37.3398 132.936 37.392C132.319 37.4449 131.973 37.3248 132.23 36.4807L132.231 36.4801Z" fill="#0F5686"/>
<path d="M190.424 30.7123C190.424 32.3821 190.445 34.0721 190.412 35.7615C190.4 36.3849 190.608 36.6949 191.266 36.6656C191.538 36.6532 191.744 36.6767 191.738 37.0572C191.731 37.4946 191.443 37.3758 191.217 37.3777C190.352 37.3856 189.486 37.3777 188.62 37.383C188.389 37.3843 188.192 37.3947 188.205 37.067C188.214 36.8248 188.236 36.6538 188.544 36.6636C189.098 36.6812 189.247 36.4103 189.24 35.8822C189.211 33.8449 189.22 31.8063 189.243 29.769C189.248 29.3075 189.086 29.0823 188.618 29.0967C188.281 29.1071 188.19 28.9596 188.205 28.6449C188.222 28.2846 188.473 28.3812 188.666 28.3799C189.473 28.3727 190.28 28.3936 191.086 28.3688C191.424 28.3584 191.612 28.4713 191.786 28.7487C192.959 30.6131 194.15 32.4669 195.335 34.3241C195.434 34.4801 195.533 34.6354 195.69 34.8815C195.69 33.6674 195.697 32.5661 195.687 31.4649C195.681 30.9277 195.605 30.3892 195.631 29.8545C195.655 29.3512 195.495 29.0927 194.956 29.1136C194.839 29.1182 194.721 29.0758 194.604 29.0797C194.303 29.0888 194.331 28.8917 194.316 28.6933C194.295 28.4276 194.421 28.3708 194.664 28.3727C195.588 28.3819 196.513 28.3754 197.438 28.3767C197.63 28.3767 197.841 28.3316 197.835 28.6443C197.83 28.8937 197.84 29.1038 197.486 29.0947C196.939 29.0797 196.779 29.3571 196.785 29.8793C196.807 32.2052 196.776 34.5316 196.797 36.8581C196.801 37.2948 196.669 37.351 196.248 37.4012C195.187 37.5285 194.556 37.1597 193.992 36.2465C192.918 34.5055 191.748 32.8188 190.666 31.0798C190.577 30.9375 190.481 30.7991 190.423 30.7116L190.424 30.7123Z" fill="#125987"/>
<path d="M158.235 22.3262C157.064 22.3262 155.892 22.3288 154.72 22.3236C154.473 22.3223 154.157 22.4333 154.18 21.9731C154.195 21.6597 154.187 21.4169 154.62 21.4306C155.272 21.4521 155.477 21.1349 155.468 20.4926C155.435 17.999 155.447 15.5047 155.476 13.0111C155.483 12.4458 155.277 12.1939 154.712 12.186C154.403 12.1815 154.167 12.1397 154.193 11.7095C154.214 11.3557 154.319 11.2754 154.662 11.2774C156.942 11.2904 159.223 11.2898 161.503 11.2774C161.839 11.2754 162 11.3505 162.001 11.7095C162.004 12.4243 162.032 13.1391 162.069 13.8526C162.085 14.1639 161.978 14.2978 161.648 14.3017C161.369 14.3049 161.177 14.3441 161.064 13.9688C160.478 12.0405 160.81 12.4622 158.891 12.374C158.229 12.3434 158.042 12.5346 158.09 13.1665C158.149 13.9596 158.119 14.7606 158.097 15.557C158.088 15.8788 158.187 15.9852 158.519 15.9708C159.312 15.9356 160.11 15.9617 160.902 15.9036C161.36 15.8696 161.517 15.9545 161.42 16.4304C161.249 17.277 161.267 17.2803 160.372 17.213C160.081 17.1915 159.787 17.1954 159.495 17.1948C158.568 17.1926 158.104 17.6563 158.104 18.5858C158.104 19.1785 158.097 19.7719 158.106 20.364C158.117 21.0716 158.264 21.206 159.006 21.2198C159.194 21.223 159.382 21.2198 159.571 21.2198C161.103 21.2198 161.094 21.2171 161.511 19.7393C161.578 19.4997 161.465 19.0989 161.994 19.1185C162.393 19.1335 162.547 19.2177 162.53 19.6322C162.501 20.3672 162.488 21.1003 162.389 21.8321C162.339 22.2035 162.238 22.3497 161.813 22.3373C160.622 22.3014 159.428 22.3249 158.235 22.3249V22.3262Z" fill="#0F5786"/>
<path d="M231.723 22.3263C230.509 22.3263 229.296 22.3243 228.082 22.3282C227.84 22.3289 227.606 22.3517 227.651 21.9973C227.682 21.7584 227.539 21.4268 227.998 21.4463C228.761 21.479 228.949 21.0893 228.939 20.3941C228.905 17.9207 228.911 15.4474 228.94 12.974C228.947 12.4178 228.732 12.2129 228.199 12.1855C227.966 12.1737 227.646 12.2416 227.659 11.7951C227.67 11.423 227.725 11.269 228.164 11.2735C230.403 11.2977 232.642 11.2944 234.881 11.2761C235.302 11.2729 235.48 11.3688 235.471 11.8108C235.458 12.4838 235.5 13.1581 235.532 13.8311C235.546 14.119 235.488 14.3109 235.135 14.2985C234.881 14.2893 234.655 14.3984 234.532 13.993C233.938 12.0347 234.31 12.4603 232.253 12.3761C231.653 12.3513 231.527 12.5471 231.556 13.0824C231.601 13.8977 231.585 14.7176 231.559 15.5348C231.548 15.8912 231.673 15.9892 232.021 15.9715C232.836 15.9304 233.652 15.9343 234.465 15.8926C234.833 15.8736 234.955 15.9846 234.903 16.3488C234.779 17.2229 234.723 17.264 233.797 17.2105C233.171 17.1739 232.542 17.1955 231.915 17.1694C231.635 17.1576 231.559 17.2575 231.562 17.5206C231.576 18.5219 231.569 19.5239 231.57 20.5253C231.57 20.9724 231.793 21.2094 232.256 21.2166C232.465 21.2198 232.674 21.2205 232.883 21.2205C234.554 21.2205 234.546 21.2185 234.995 19.6434C235.049 19.4541 234.954 19.1277 235.369 19.1225C235.784 19.1172 236.029 19.1551 235.997 19.6721C235.951 20.4052 235.943 21.1395 235.848 21.8713C235.801 22.2277 235.678 22.3446 235.3 22.3361C234.108 22.31 232.915 22.3263 231.722 22.3263H231.723Z" fill="#0F5786"/>
<path d="M225.395 12.8381C225.395 13.3074 225.396 13.6142 225.395 13.921C225.394 14.2135 225.408 14.4635 224.961 14.5001C224.546 14.534 224.392 14.4021 224.342 14.0346C224.318 13.8545 224.249 13.6795 224.2 13.5026C223.94 12.5665 223.681 12.3257 222.892 12.2885C222.037 12.2486 221.42 12.5672 221.191 13.1671C220.92 13.8767 221.166 14.7631 221.79 15.2024C222.058 15.3917 222.364 15.5347 222.666 15.6724C223.119 15.8794 223.579 16.0745 224.044 16.2554C226.706 17.2894 226.096 20.64 224.535 21.7047C223.029 22.7309 220.187 22.8901 218.605 21.9802C218.332 21.8235 218.234 21.642 218.251 21.3418C218.294 20.6061 218.409 19.8815 218.525 19.1543C218.602 18.6706 218.933 18.7574 219.269 18.7542C219.671 18.7509 219.622 19.0029 219.62 19.2483C219.618 19.4115 219.618 19.5754 219.626 19.7386C219.691 21.2288 221.08 21.9599 222.416 21.2086C223.262 20.7327 223.411 19.4069 222.705 18.6262C222.407 18.2972 222.023 18.091 221.622 17.9114C221.11 17.6823 220.599 17.4486 220.084 17.2247C217.481 16.0941 218.165 12.7872 219.859 11.87C221.524 10.9679 223.254 11.0051 225.027 11.4425C225.277 11.5038 225.34 11.684 225.352 11.8994C225.371 12.2663 225.386 12.6338 225.396 12.8381H225.395Z" fill="#105887"/>
<path d="M235.626 29.7044C235.626 30.0719 235.627 30.3114 235.626 30.551C235.625 30.7795 235.637 30.9753 235.287 31.004C234.962 31.0308 234.842 30.9276 234.803 30.6398C234.784 30.4988 234.73 30.3623 234.692 30.224C234.489 29.4922 234.286 29.3035 233.669 29.2742C233 29.2428 232.517 29.4922 232.338 29.9615C232.126 30.5164 232.319 31.2096 232.807 31.5537C233.017 31.7018 233.256 31.8135 233.492 31.9212C233.846 32.0831 234.206 32.2358 234.57 32.3768C236.653 33.1856 236.175 35.8065 234.954 36.6394C233.776 37.4417 231.553 37.567 230.315 36.8548C230.102 36.7321 230.025 36.5904 230.039 36.3554C230.073 35.7797 230.163 35.2131 230.253 34.6445C230.314 34.2659 230.572 34.3338 230.835 34.3319C231.15 34.3292 231.111 34.5264 231.109 34.7183C231.108 34.8462 231.108 34.9742 231.114 35.1021C231.164 36.268 232.251 36.8398 233.297 36.2523C233.959 35.8802 234.075 34.843 233.522 34.2326C233.289 33.9754 232.989 33.8142 232.676 33.6739C232.274 33.4943 231.875 33.3116 231.473 33.1366C229.436 32.2521 229.971 29.6658 231.296 28.9478C232.599 28.2421 233.952 28.2709 235.339 28.6129C235.535 28.6612 235.584 28.8016 235.593 28.9706C235.608 29.2579 235.62 29.5451 235.628 29.705L235.626 29.7044Z" fill="#105887"/>
<path d="M226.08 33.2673C226.743 33.6348 227.065 34.2308 227.408 34.8156C227.871 35.6075 228.205 36.505 229.142 36.9274C229.28 36.99 229.255 37.1147 229.251 37.2263C229.246 37.4 229.103 37.3771 228.994 37.3778C228.403 37.381 227.811 37.4091 227.224 37.3673C226.669 37.3275 226.295 36.9554 226.024 36.5207C225.616 35.8666 225.257 35.1832 224.866 34.518C224.67 34.1844 224.452 33.8554 224.07 33.6987C223.803 33.5891 223.583 33.5721 223.599 33.9879C223.625 34.6596 223.628 35.3339 223.599 36.005C223.579 36.4424 223.757 36.6414 224.19 36.6467C224.506 36.6506 224.696 36.7289 224.66 37.1134C224.622 37.522 224.334 37.3712 224.14 37.3739C223.04 37.3869 221.938 37.3823 220.837 37.3784C220.655 37.3784 220.423 37.4463 220.43 37.1238C220.435 36.8849 220.401 36.6499 220.765 36.6656C221.37 36.6917 221.488 36.3601 221.482 35.8327C221.459 33.8149 221.464 31.7972 221.486 29.7795C221.491 29.3193 221.314 29.1124 220.863 29.1052C220.564 29.1006 220.409 29.0099 220.423 28.6665C220.439 28.2631 220.717 28.3826 220.921 28.3813C222.258 28.3734 223.595 28.3747 224.933 28.3793C225.148 28.38 225.366 28.3976 225.578 28.4328C226.861 28.6469 227.468 29.1809 227.639 30.2319C227.859 31.5923 227.406 32.5603 226.281 33.1348C226.23 33.1609 226.185 33.1974 226.08 33.2673ZM223.604 30.9995C223.604 31.4421 223.639 31.8873 223.595 32.326C223.549 32.7731 223.777 32.7803 224.112 32.7333C225.337 32.5623 225.896 31.5407 225.501 30.1855C225.316 29.5497 224.877 29.2142 224.208 29.2116C223.822 29.2103 223.519 29.2697 223.593 29.7893C223.649 30.1855 223.604 30.5955 223.604 30.9995Z" fill="#0F5786"/>
<path d="M165.589 33.27C166.239 33.6271 166.557 34.2034 166.891 34.7707C167.366 35.5775 167.698 36.4979 168.654 36.9314C168.792 36.9934 168.764 37.1226 168.758 37.233C168.748 37.4033 168.603 37.3779 168.495 37.3785C167.904 37.3811 167.312 37.4112 166.725 37.3674C166.172 37.3263 165.798 36.951 165.527 36.5169C165.119 35.8621 164.76 35.1787 164.37 34.5142C164.174 34.1806 163.954 33.8529 163.571 33.6976C163.293 33.5853 163.089 33.5905 163.105 33.9952C163.132 34.6669 163.136 35.3412 163.105 36.0123C163.084 36.4575 163.28 36.6422 163.703 36.6481C164.029 36.6527 164.203 36.7453 164.166 37.1207C164.125 37.5293 163.831 37.3714 163.64 37.374C162.539 37.3883 161.438 37.3825 160.337 37.3798C160.149 37.3798 159.929 37.4347 159.936 37.1174C159.941 36.872 159.921 36.654 160.28 36.6644C160.825 36.6801 160.992 36.4105 160.986 35.8837C160.961 33.847 160.969 31.8097 160.993 29.7737C160.999 29.309 160.81 29.1105 160.364 29.1053C160.056 29.102 159.917 28.9956 159.932 28.6608C159.95 28.2554 160.236 28.3846 160.435 28.3833C161.773 28.3742 163.11 28.3768 164.448 28.3807C164.644 28.3807 164.842 28.3931 165.035 28.4232C166.348 28.6281 166.976 29.1719 167.148 30.2398C167.366 31.5989 166.913 32.5604 165.784 33.1394C165.733 33.1655 165.688 33.2034 165.589 33.2713L165.589 33.27ZM163.112 31.0284C163.112 31.4514 163.147 31.8783 163.102 32.2967C163.053 32.7641 163.288 32.7856 163.648 32.7295C164.85 32.5415 165.389 31.5545 165.015 30.2144C164.818 29.5061 164.307 29.1654 163.57 29.2235C163.25 29.2489 163.07 29.3279 163.103 29.7026C163.142 30.1419 163.112 30.5864 163.112 31.029L163.112 31.0284Z" fill="#0F5786"/>
<path d="M142.08 33.2724C142.718 33.6177 143.033 34.1759 143.357 34.7255C143.844 35.548 144.175 36.4899 145.15 36.9351C145.286 36.9972 145.255 37.1303 145.245 37.2393C145.23 37.4064 145.084 37.3771 144.976 37.3777C144.385 37.3803 143.792 37.4162 143.207 37.3647C142.608 37.3118 142.234 36.8862 141.947 36.4142C141.546 35.7556 141.178 35.0773 140.791 34.4102C140.624 34.123 140.417 33.8567 140.107 33.7144C139.772 33.5603 139.565 33.6021 139.592 34.0597C139.629 34.6916 139.629 35.3293 139.592 35.9612C139.565 36.4194 139.735 36.6453 140.199 36.6479C140.535 36.6499 140.692 36.7622 140.652 37.1271C140.608 37.5344 140.309 37.3692 140.121 37.3725C139.04 37.3888 137.958 37.3836 136.877 37.3777C136.685 37.3764 136.434 37.4724 136.42 37.1101C136.408 36.7961 136.499 36.6492 136.833 36.6544C137.331 36.6623 137.476 36.4175 137.47 35.9331C137.447 33.8776 137.46 31.8213 137.478 29.7651C137.482 29.348 137.357 29.1149 136.902 29.111C136.601 29.1084 136.38 29.0483 136.42 28.6515C136.464 28.2037 136.788 28.3884 136.99 28.3851C138.248 28.3682 139.508 28.374 140.766 28.3786C141.02 28.3793 141.279 28.3845 141.529 28.4236C142.841 28.628 143.465 29.173 143.636 30.2449C143.852 31.6033 143.401 32.5531 142.264 33.1406C142.213 33.1667 142.17 33.2065 142.078 33.2718L142.08 33.2724ZM139.601 31.0132C139.601 31.4747 139.625 31.9382 139.593 32.3977C139.568 32.7398 139.732 32.7652 140.005 32.745C141.279 32.6484 141.91 31.5661 141.495 30.1731C141.303 29.5249 140.819 29.1867 140.133 29.2135C139.781 29.2272 139.541 29.3029 139.591 29.7455C139.638 30.1633 139.601 30.5908 139.601 31.0138V31.0132Z" fill="#0F5786"/>
<path d="M158.502 32.7906C158.501 34.1517 158.251 35.4409 157.205 36.4344C155.849 37.721 154.21 37.8973 152.496 37.3659C150.85 36.8561 150.119 35.5767 149.883 33.9859C149.746 33.0654 149.771 32.1437 150.028 31.2442C150.622 29.1684 152.52 28.0097 154.853 28.2787C156.964 28.5222 158.396 30.0653 158.502 32.2149C158.511 32.4068 158.503 32.5987 158.503 32.7913L158.502 32.7906ZM156.259 33.3644C156.259 33.038 156.284 32.7097 156.254 32.3866C156.175 31.5412 156.025 30.7102 155.531 29.9831C155.108 29.3623 154.504 29.1057 153.756 29.1939C153.066 29.2748 152.571 29.6606 152.367 30.2912C151.77 32.1392 151.87 33.9682 152.718 35.7248C153.044 36.4005 153.64 36.7562 154.445 36.6864C155.246 36.6165 155.723 36.1544 156.005 35.4624C156.279 34.7888 156.281 34.0746 156.259 33.3651L156.259 33.3644Z" fill="#105887"/>
<path d="M124.476 32.7901C124.474 34.1512 124.224 35.4404 123.178 36.4339C121.823 37.7205 120.183 37.8968 118.469 37.3654C116.824 36.8556 116.092 35.5762 115.855 33.9854C115.719 33.065 115.744 32.1432 116.001 31.2437C116.594 29.1679 118.492 28.0092 120.826 28.2782C122.937 28.521 124.368 30.0648 124.474 32.2144C124.484 32.4063 124.476 32.5982 124.476 32.7908V32.7901ZM122.231 33.2987C122.231 32.9912 122.256 32.6818 122.227 32.3776C122.145 31.5322 121.996 30.7006 121.499 29.9754C121.074 29.3559 120.467 29.1033 119.72 29.1947C119.031 29.2789 118.541 29.6673 118.336 30.2985C117.738 32.1478 117.849 33.9762 118.695 35.7315C119.021 36.4078 119.622 36.7583 120.427 36.6846C121.226 36.6115 121.702 36.1467 121.98 35.4528C122.259 34.7596 122.26 34.0271 122.231 33.298V33.2987Z" fill="#105887"/>
<path d="M97.3604 25.21C97.3604 19.8749 97.3604 14.5392 97.3604 9.20408C97.3604 8.40835 97.4376 8.35286 98.2639 8.44033C98.4958 8.46514 98.6105 8.53564 98.5991 8.76998C98.5925 8.91294 98.5991 9.0559 98.5991 9.19885C98.5991 19.8697 98.5991 30.5399 98.5991 41.2108C98.5991 41.9243 98.3312 42.1129 97.6049 41.9393C97.4243 41.8962 97.3637 41.8061 97.363 41.6449C97.3623 41.481 97.3604 41.3178 97.3604 41.1547C97.3604 35.8398 97.3604 30.5249 97.3604 25.21Z" fill="#EFA852"/>
<path d="M135.755 22.3262C134.564 22.3262 133.373 22.3249 132.181 22.3268C131.928 22.3268 131.68 22.3732 131.701 21.9763C131.718 21.6682 131.699 21.4182 132.138 21.4319C132.782 21.4521 132.998 21.1473 132.99 20.4991C132.955 18.0088 132.969 15.5178 132.998 13.0268C133.004 12.4746 132.834 12.2024 132.251 12.1841C132.013 12.1769 131.705 12.2311 131.716 11.7891C131.725 11.4079 131.798 11.2663 132.227 11.2741C133.711 11.3015 135.195 11.2793 136.678 11.2904C136.908 11.2924 137.245 11.1396 137.248 11.6149C137.25 11.9824 137.184 12.1449 136.749 12.1762C135.624 12.2585 135.626 12.2866 135.626 13.3813C135.625 15.6679 135.624 17.9546 135.626 20.2419C135.628 21.1049 135.749 21.2165 136.648 21.221C136.795 21.2217 136.94 21.221 137.087 21.221C138.112 21.221 138.758 20.7297 139.024 19.7471C139.102 19.4644 139.049 19.0767 139.579 19.123C139.915 19.1524 140.056 19.2249 140.05 19.5819C140.035 20.3581 140.008 21.1303 139.901 21.9012C139.857 22.225 139.751 22.3445 139.391 22.336C138.179 22.3092 136.967 22.3255 135.755 22.3255V22.3262Z" fill="#0F5686"/>
<path d="M175.62 33.8005C176.151 33.8005 176.682 33.7907 177.213 33.8064C177.374 33.8109 177.647 33.6817 177.643 34.0185C177.641 34.2313 177.738 34.4977 177.371 34.5407C177.065 34.5766 177.03 34.7862 177.031 35.0434C177.035 35.6191 177.003 36.1955 177.005 36.7713C177.006 37.0278 176.965 37.1975 176.662 37.2739C175.273 37.6244 173.874 37.7831 172.465 37.441C170.65 36.9997 169.59 35.7151 169.446 33.7117C169.303 31.7155 169.791 29.9413 171.729 28.891C173.256 28.0639 174.898 28.124 176.55 28.4856C176.723 28.5235 176.837 28.5835 176.84 28.7794C176.85 29.4126 176.863 30.0458 176.884 30.6789C176.893 30.9662 176.682 30.9583 176.49 30.991C176.301 31.023 176.129 31.0347 176.098 30.7834C176.091 30.7266 176.071 30.6711 176.051 30.6169C175.861 30.083 175.95 29.3532 175.136 29.2337C174.148 29.0888 173.203 29.1632 172.477 29.9563C171.896 30.5915 171.736 31.3859 171.659 32.1947C171.565 33.1784 171.637 34.1543 171.989 35.0904C172.382 36.1348 173.288 36.7106 174.397 36.6942C174.787 36.6884 174.931 36.533 174.924 36.1799C174.92 36.0069 174.926 35.8339 174.926 35.6609C174.926 34.6236 174.927 34.6099 173.892 34.5172C173.592 34.4905 173.502 34.4056 173.497 34.1106C173.492 33.7763 173.681 33.7927 173.908 33.7998C174.203 33.8096 174.498 33.8149 174.793 33.8181C175.068 33.8214 175.344 33.8181 175.619 33.8181C175.619 33.8122 175.619 33.8057 175.619 33.7998L175.62 33.8005Z" fill="#125987"/>
<path d="M185.476 37.381C184.885 37.381 184.295 37.3718 183.705 37.3856C183.45 37.3914 183.351 37.3079 183.363 37.0559C183.374 36.8522 183.369 36.7158 183.655 36.6688C184.697 36.4978 184.695 36.4821 184.32 35.4703C184.047 34.7318 183.511 34.3626 182.712 34.3626H182.594C180.862 34.3626 180.838 34.3906 180.457 36.0963C180.383 36.4286 180.408 36.6127 180.805 36.6166C180.981 36.6185 181.157 36.6766 181.332 36.6734C181.604 36.6682 181.651 36.8026 181.649 37.0324C181.647 37.2576 181.613 37.3895 181.333 37.3856C180.467 37.3725 179.602 37.3777 178.736 37.3829C178.55 37.3842 178.42 37.3438 178.453 37.1323C178.48 36.9665 178.332 36.706 178.649 36.6793C179.094 36.642 179.211 36.3287 179.335 35.9925C180.146 33.7927 180.985 31.6013 181.763 29.3904C181.959 28.8342 182.237 28.5659 182.833 28.4491C183.826 28.2552 183.819 28.2095 184.153 29.1319C184.98 31.4081 185.807 33.6843 186.631 35.9619C186.759 36.313 186.875 36.6616 187.352 36.6793C187.685 36.6917 187.538 36.9508 187.566 37.1133C187.609 37.366 187.444 37.3849 187.245 37.3829C186.655 37.3771 186.065 37.381 185.474 37.381H185.476ZM181.413 33.4239H183.551C183.193 32.4532 182.852 31.5276 182.46 30.4636C182.077 31.5478 181.753 32.463 181.412 33.4239H181.413Z" fill="#125987"/>
<path d="M215.634 37.3804C214.69 37.3804 213.745 37.3824 212.801 37.3784C212.618 37.3778 212.388 37.4444 212.394 37.1226C212.4 36.8823 212.367 36.6493 212.731 36.665C213.338 36.6911 213.452 36.3562 213.447 35.8301C213.424 33.8117 213.428 31.7927 213.45 29.7743C213.456 29.3076 213.262 29.1104 212.818 29.1046C212.506 29.1 212.374 28.9884 212.389 28.6568C212.408 28.2501 212.697 28.3826 212.895 28.3819C214.667 28.3735 216.437 28.3872 218.208 28.3682C218.559 28.3643 218.707 28.4557 218.711 28.801C218.715 29.3578 218.728 29.9153 218.767 30.4702C218.787 30.7548 218.665 30.8377 218.406 30.8592C218.156 30.8794 218.016 30.8259 217.937 30.5576C217.481 29.0079 217.851 29.3245 215.933 29.2788C215.651 29.2723 215.559 29.3578 215.565 29.6359C215.583 30.3664 215.587 31.0975 215.564 31.8273C215.553 32.1602 215.665 32.2633 215.999 32.2424C216.587 32.2052 217.177 32.1967 217.767 32.1883C217.982 32.185 218.327 32.0897 218.251 32.4709C218.186 32.7966 218.32 33.3169 217.679 33.2869C217.109 33.2601 216.539 33.2568 215.97 33.2216C215.673 33.2033 215.553 33.279 215.563 33.5969C215.587 34.3463 215.575 35.0964 215.57 35.8464C215.567 36.27 215.749 36.5018 216.207 36.4737C216.246 36.4711 216.286 36.4744 216.325 36.4737C218.004 36.443 217.886 36.7361 218.346 35.0866C218.443 34.7399 218.633 34.8215 218.863 34.8157C219.185 34.8085 219.137 35.0187 219.133 35.2047C219.122 35.8 219.095 36.3934 219.016 36.9861C218.972 37.3158 218.837 37.3915 218.526 37.3863C217.563 37.37 216.598 37.3804 215.633 37.3804H215.634Z" fill="#105887"/>
<path d="M208.822 29.3262C207.931 29.182 207.116 29.2009 206.299 29.3001C206.054 29.3302 205.91 29.4522 205.845 29.6833C205.762 29.9784 205.652 30.2669 205.585 30.5652C205.53 30.8113 205.444 30.9144 205.153 30.8825C204.873 30.8518 204.782 30.761 204.793 30.4941C204.816 29.9379 204.822 29.3804 204.819 28.8236C204.818 28.4972 204.981 28.3908 205.293 28.3915C206.965 28.3973 208.636 28.381 210.308 28.4006C210.96 28.4084 211.321 29.118 210.98 29.6507C209.645 31.7317 208.309 33.8114 206.981 35.8951C206.882 36.0491 206.721 36.1843 206.731 36.4663C207.652 36.4663 208.567 36.4656 209.483 36.4663C209.809 36.4663 209.99 36.2789 210.086 36.0067C210.195 35.6993 210.302 35.3879 210.368 35.07C210.43 34.7775 210.598 34.7854 210.842 34.7984C211.134 34.8141 211.219 34.9381 211.182 35.194C211.177 35.2319 211.185 35.271 211.181 35.3089C211.108 35.9747 211.326 36.8175 210.899 37.2574C210.514 37.6543 209.672 37.3619 209.033 37.373C207.775 37.3939 206.516 37.3834 205.258 37.3775C204.58 37.3743 204.207 36.7378 204.551 36.1849C205.958 33.9237 207.366 31.6638 208.822 29.3249L208.822 29.3262Z" fill="#125987"/>
<path d="M111.837 32.845C111.837 33.8835 111.859 34.9227 111.827 35.96C111.813 36.4169 111.969 36.6454 112.434 36.648C112.774 36.65 112.927 36.7714 112.886 37.1324C112.84 37.5384 112.537 37.368 112.35 37.3713C111.287 37.3889 110.225 37.3856 109.162 37.3745C108.964 37.3726 108.674 37.5071 108.655 37.0997C108.641 36.7727 108.759 36.6545 109.079 36.6513C109.524 36.6467 109.709 36.4561 109.703 35.9757C109.68 33.8607 109.697 31.745 109.714 29.6301C109.717 29.3187 109.647 29.2005 109.297 29.1953C108.15 29.179 108.126 29.1855 107.83 30.2952C107.772 30.5126 107.84 30.8279 107.437 30.8207C107.155 30.8155 106.953 30.7907 106.979 30.4238C107.015 29.8879 107.009 29.3487 107.01 28.8108C107.01 28.4688 107.159 28.3656 107.515 28.3682C109.68 28.3852 111.845 28.3885 114.01 28.3663C114.409 28.3624 114.533 28.5014 114.534 28.8513C114.535 29.3703 114.549 29.8886 114.558 30.4075C114.561 30.6236 114.579 30.8109 114.241 30.8181C113.956 30.824 113.787 30.7737 113.745 30.4826C113.731 30.3879 113.71 30.2933 113.685 30.2006C113.418 29.2136 113.122 29.0432 112.085 29.1973C111.765 29.2449 111.839 29.4394 111.838 29.6131C111.833 30.6902 111.835 31.7672 111.835 32.8437L111.837 32.845Z" fill="#0F5686"/>
<path d="M201.084 28.3773C201.635 28.3773 202.185 28.3786 202.735 28.3766C202.956 28.376 203.171 28.3446 203.154 28.6841C203.142 28.9204 203.134 29.1025 202.822 29.0914C202.229 29.0699 202.09 29.378 202.097 29.9165C202.123 31.9329 202.119 33.95 202.093 35.9664C202.087 36.4266 202.247 36.6381 202.704 36.6512C202.986 36.6597 203.171 36.7197 203.158 37.0781C203.142 37.5278 202.824 37.3712 202.613 37.3738C201.552 37.3875 200.491 37.3862 199.43 37.3744C199.233 37.3725 198.94 37.5096 198.922 37.1022C198.907 36.7798 199.016 36.6486 199.342 36.6531C199.846 36.6603 199.976 36.4051 199.971 35.9266C199.948 33.8717 199.96 31.8167 199.98 29.7618C199.984 29.3401 199.851 29.1149 199.401 29.111C199.097 29.1084 198.881 29.0438 198.921 28.6495C198.966 28.2017 199.289 28.3962 199.493 28.3858C200.022 28.359 200.554 28.3766 201.084 28.3766V28.3773Z" fill="#0F5786"/>
</g>
<defs>
<clipPath id="clip0_3_267">
<rect width="236" height="42" fill="white"/>
</clipPath>
</defs>
</svg>
