<svg width="40" height="32" viewBox="0 0 40 32" fill="none" xmlns="http://www.w3.org/2000/svg">
<path d="M10.6658 6.99805C13.0605 7.56591 15.2862 8.0051 17.456 8.63301C19.5024 9.22489 21.4439 9.25748 23.475 8.52149C25.3506 7.84212 25.6635 8.1372 26.4702 10.0518C26.6444 10.4635 27.1839 10.8719 27.6286 10.9868C30.7608 11.7914 33.9014 12.5651 37.0622 13.2428C38.0431 13.4521 38.1649 13.8587 37.9467 14.7216C37.48 16.5779 37.0961 18.4548 36.6479 20.3145C36.2555 21.9443 35.4116 22.4675 33.7678 22.1124C32.4571 21.8293 31.1531 21.5085 29.6243 21.1534C29.7088 21.6423 29.7494 21.9838 29.8306 22.3166C30.2771 24.1385 29.9913 24.6601 28.1766 25.1799C23.9756 26.3808 19.7713 27.568 15.5686 28.7586C12.4568 29.6404 9.34492 30.524 6.2297 31.3938C4.68393 31.8261 4.0548 31.4778 3.61677 29.9081C2.45322 25.7255 1.30488 21.5411 0.168384 17.3534C-0.259493 15.7802 0.0939707 15.1334 1.62283 14.6891C3.88229 14.032 6.16543 13.4573 8.40122 12.735C8.88152 12.5806 9.40918 12.0024 9.56647 11.5066C10.0146 10.0998 10.2818 8.63472 10.6658 6.99805ZM2.63925 22.2274C3.35463 24.8351 4.00744 27.3381 4.76511 29.8086C4.85136 30.0882 5.57689 30.421 5.89991 30.3318C13.3041 28.2765 20.6913 26.1578 28.0887 24.0751C28.9055 23.8452 29.0273 23.4403 28.8007 22.67C28.1969 20.6319 27.6083 18.5869 27.1128 16.5196C26.8845 15.564 26.5057 15.4233 25.6178 15.6841C20.9416 17.0497 16.2485 18.3536 11.5621 19.6814C8.62108 20.5152 5.68344 21.3576 2.64094 22.2256L2.63925 22.2274ZM1.84269 18.9111C9.45823 16.7598 16.996 14.6016 24.5557 12.524C25.7632 12.1929 25.7971 11.6645 25.5146 10.6145C25.2153 9.49595 24.7891 9.2266 23.6611 9.55428C16.8945 11.5255 10.106 13.4212 3.32588 15.3461C0.689278 16.0941 0.674057 16.137 1.84269 18.9111ZM34.0823 20.8343C35.3271 20.5444 35.2036 19.3863 35.2679 18.6143C35.3947 17.0823 33.9115 17.3911 33.1758 17.3379C31.7197 17.2316 32.0343 18.7499 31.9835 19.5116C31.8888 20.9252 33.3974 20.2201 34.0806 20.8343H34.0823Z" fill="#0C5585"/>
<path d="M10.6658 6.99805C13.0605 7.56591 15.2862 8.0051 17.456 8.63301C19.5024 9.22489 21.4439 9.25748 23.475 8.52149C25.3506 7.84212 25.6635 8.1372 26.4702 10.0518C26.6444 10.4635 27.1839 10.8719 27.6286 10.9868C30.7608 11.7914 33.9014 12.5651 37.0622 13.2428C38.0431 13.4521 38.1649 13.8587 37.9467 14.7216C37.48 16.5779 37.0961 18.4548 36.6479 20.3145C36.2555 21.9443 35.4116 22.4675 33.7678 22.1124C32.4571 21.8293 31.1531 21.5085 29.6243 21.1534C29.7088 21.6423 29.7494 21.9838 29.8306 22.3166C30.2771 24.1385 29.9913 24.6601 28.1766 25.1799C23.9756 26.3808 19.7713 27.568 15.5686 28.7586C12.4568 29.6404 9.34492 30.524 6.2297 31.3938C4.68393 31.8261 4.0548 31.4778 3.61677 29.9081C2.45322 25.7255 1.30488 21.5411 0.168384 17.3534C-0.259493 15.7802 0.0939707 15.1334 1.62283 14.6891C3.88229 14.032 6.16543 13.4573 8.40122 12.735C8.88152 12.5806 9.40918 12.0024 9.56647 11.5066C10.0146 10.0998 10.2818 8.63472 10.6658 6.99805ZM2.63925 22.2274C3.35463 24.8351 4.00744 27.3381 4.76511 29.8086C4.85136 30.0882 5.57689 30.421 5.89991 30.3318C13.3041 28.2765 20.6913 26.1578 28.0887 24.0751C28.9055 23.8452 29.0273 23.4403 28.8007 22.67C28.1969 20.6319 27.6083 18.5869 27.1128 16.5196C26.8845 15.564 26.5057 15.4233 25.6178 15.6841C20.9416 17.0497 16.2485 18.3536 11.5621 19.6814C8.62108 20.5152 5.68344 21.3576 2.64094 22.2256L2.63925 22.2274ZM1.84269 18.9111C9.45823 16.7598 16.996 14.6016 24.5557 12.524C25.7632 12.1929 25.7971 11.6645 25.5146 10.6145C25.2153 9.49595 24.7891 9.2266 23.6611 9.55428C16.8945 11.5255 10.106 13.4212 3.32588 15.3461C0.689278 16.0941 0.674057 16.137 1.84269 18.9111ZM34.0823 20.8343C35.3271 20.5444 35.2036 19.3863 35.2679 18.6143C35.3947 17.0823 33.9115 17.3911 33.1758 17.3379C31.7197 17.2316 32.0343 18.7499 31.9835 19.5116C31.8888 20.9252 33.3974 20.2201 34.0806 20.8343H34.0823Z" fill="black" fill-opacity="0.2"/>
<path d="M38.796 10.0591C29.7294 7.90602 20.7186 5.76839 11.7365 3.63419C11.3306 0.829196 12.6498 -0.460929 15.1984 0.148106C22.4165 1.87228 29.638 3.58615 36.8561 5.30861C39.6433 5.97254 40.1658 7.17689 38.796 10.0591Z" fill="#0C5585"/>
<path d="M38.796 10.0591C29.7294 7.90602 20.7186 5.76839 11.7365 3.63419C11.3306 0.829196 12.6498 -0.460929 15.1984 0.148106C22.4165 1.87228 29.638 3.58615 36.8561 5.30861C39.6433 5.97254 40.1658 7.17689 38.796 10.0591Z" fill="black" fill-opacity="0.2"/>
<path d="M9.49649 28.1079L8.52857 24.8883C8.46263 24.669 8.23391 24.5454 8.0177 24.6123L4.84385 25.5942C4.62765 25.6611 4.50583 25.8931 4.57176 26.1124L5.53969 29.332C5.60562 29.5513 5.83434 29.6749 6.05055 29.608L9.2244 28.6262C9.4406 28.5593 9.56242 28.3273 9.49649 28.1079Z" fill="#0C5585"/>
<path d="M9.49649 28.1079L8.52857 24.8883C8.46263 24.669 8.23391 24.5454 8.0177 24.6123L4.84385 25.5942C4.62765 25.6611 4.50583 25.8931 4.57176 26.1124L5.53969 29.332C5.60562 29.5513 5.83434 29.6749 6.05055 29.608L9.2244 28.6262C9.4406 28.5593 9.56242 28.3273 9.49649 28.1079Z" fill="black" fill-opacity="0.2"/>
<path d="M35.2696 20.7267L35.772 18.1553C35.8159 17.9304 35.6718 17.7119 35.4501 17.6673L32.7211 17.1187C32.4994 17.0741 32.284 17.2203 32.2401 17.4452L31.7377 20.0166C31.6938 20.2416 31.8379 20.46 32.0596 20.5046L34.7886 21.0533C35.0103 21.0978 35.2257 20.9516 35.2696 20.7267Z" fill="white"/>
</svg>
