<svg width="41" height="40" viewBox="0 0 41 40" fill="none" xmlns="http://www.w3.org/2000/svg">
<g clip-path="url(#clip0_3_469)">
<path d="M13.1762 34.7293C13.8912 35.9359 13.876 36.0009 12.6495 36.7486C11.2423 37.6069 9.82758 38.4569 8.42044 39.3165C8.02273 39.5598 7.53395 39.8141 7.19545 39.4257C6.79622 38.9655 6.37879 38.3822 6.34387 37.8322C6.30441 37.2047 7.16357 37.1604 7.97112 37.8017C9.18397 37.0651 10.415 36.3174 11.7265 35.5213C9.72588 32.7874 7.76923 30.1158 5.77616 27.3917C4.48134 28.1767 3.25028 28.9244 1.94939 29.7136C2.77364 30.8387 3.55691 31.907 4.33865 32.974C4.77279 33.5683 5.20541 34.164 5.64106 34.757C5.95376 35.1826 5.97653 35.6042 5.4756 35.8986C5.01414 36.1695 4.59822 36.0105 4.30374 35.6097C2.92695 33.7342 1.55017 31.8573 0.182488 29.9762C-0.140836 29.5312 -0.0269897 29.1318 0.446613 28.8429C2.12547 27.8146 3.80889 26.7932 5.49685 25.7788C5.9492 25.5065 6.35905 25.588 6.693 25.9778C6.83114 26.1381 6.97079 26.2984 7.14535 26.5002C8.70126 25.5535 10.2465 24.6427 11.7584 23.6862C13.3204 22.698 14.9279 22.441 16.7768 23.0132C20.3895 24.1327 24.0387 25.1527 27.6757 26.2086C28.972 26.5845 29.8175 27.3461 30.0149 28.5872C30.3367 30.6258 28.4058 32.2387 26.1684 31.7688C24.2482 31.3653 22.3538 30.8635 20.4487 30.4005C19.9326 30.2748 19.5349 30.0108 19.6822 29.4718C19.8355 28.9092 20.303 28.8208 20.8783 28.9618C22.709 29.4096 24.5411 29.8505 26.3779 30.2789C27.2112 30.4738 27.8639 30.2499 28.2267 29.686C28.7352 28.894 28.2829 27.9625 27.193 27.6391C24.0933 26.72 20.9815 25.8327 17.8849 24.9039C14.2205 23.8065 14.3799 23.859 11.2681 25.7774C10.2238 26.4214 9.17638 27.0614 8.0288 27.7662C9.42532 29.6749 10.7915 31.5435 12.1774 33.4384C12.3702 33.3403 12.5265 33.2739 12.6677 33.1869C13.6088 32.6064 14.6031 32.4903 15.7006 32.7847C19.0234 33.672 22.3598 34.5151 25.6826 35.4038C26.4021 35.5959 26.9926 35.5005 27.6089 35.1232C31.1534 32.9492 34.713 30.7958 38.2665 28.6356C38.4137 28.5458 38.564 28.4601 38.7021 28.3592C39.3989 27.8492 39.5537 27.0931 39.0983 26.4574C38.6354 25.8119 37.7337 25.6212 36.958 26.0649C35.9106 26.6661 34.8936 27.3129 33.8629 27.939C33.6322 28.08 33.406 28.3108 33.1616 28.3301C32.811 28.3564 32.2842 28.3301 32.1309 28.1325C31.9746 27.9335 32.0444 27.3281 32.2478 27.1954C33.6641 26.2722 35.0849 25.3337 36.6134 24.5805C38.0175 23.888 39.8072 24.5321 40.592 25.8106C41.392 27.1125 41.0003 28.7199 39.5932 29.6031C37.5743 30.8705 35.5205 32.0936 33.4819 33.3334C31.7787 34.3686 30.068 35.3941 28.3709 36.439C27.4298 37.0181 26.4598 37.166 25.3487 36.8674C22.0031 35.9677 18.6424 35.1191 15.2922 34.2345C14.4816 34.0203 13.8061 34.1585 13.1792 34.7265L13.1762 34.7293Z" fill="#0C5585"/>
<path d="M27.5083 0.541026C34.2313 0.532733 39.7202 5.52492 39.7248 11.6546C39.7309 17.7925 34.2586 22.8082 27.5492 22.8165C20.764 22.8248 15.2629 17.8464 15.2568 11.6933C15.2508 5.52215 20.7154 0.549319 27.5083 0.541026ZM27.5417 1.97427C21.6383 1.97427 16.8507 6.30857 16.837 11.6629C16.8234 16.9937 21.6611 21.3929 27.5174 21.3777C33.3509 21.3625 38.1279 17.0075 38.1476 11.685C38.1674 6.38597 33.3494 1.97427 27.5417 1.97427Z" fill="#0C5585"/>
<path d="M28.0928 7.10892C28.0928 8.21737 28.0639 9.20558 28.1186 10.1883C28.1292 10.3721 28.4343 10.5905 28.6575 10.7052C29.333 11.0521 30.1344 11.2483 30.7082 11.6934C33.0292 13.4957 32.1731 16.6538 29.125 17.566C28.4768 17.7595 27.9774 17.87 28.0609 18.6592C28.0822 18.8679 27.604 19.266 27.2989 19.3212C26.8238 19.4083 26.4458 19.0573 26.4959 18.6122C26.5748 17.9115 26.1817 17.6917 25.5487 17.4678C24.1674 16.9786 23.2475 16.0719 23 14.6953C22.909 14.1881 22.9454 13.667 23.6421 13.5606C24.3328 13.4542 24.5423 13.8965 24.6379 14.4327C24.8003 15.3449 25.4364 15.8618 26.4868 16.1645C26.4868 14.7865 26.5111 13.4846 26.4534 12.1854C26.4458 12.0334 25.995 11.8468 25.7187 11.7666C23.4114 11.0991 22.4703 8.66655 23.97 7.00664C24.4451 6.48144 25.1647 6.10274 25.8432 5.78071C26.2682 5.57892 26.5627 5.45729 26.502 4.95697C26.4382 4.43868 26.6629 4.01437 27.311 4.00884C27.9622 4.00331 28.1702 4.44282 28.155 4.94868C28.1429 5.39372 28.3296 5.57477 28.7986 5.71022C30.1891 6.11241 31.1636 6.92509 31.4778 8.27542C31.6342 8.94712 31.3898 9.41842 30.8433 9.47924C30.1511 9.55525 29.9356 9.14615 29.8339 8.60989C29.6806 7.7903 29.084 7.36184 28.0943 7.10753L28.0928 7.10892ZM28.1717 12.2296V16.206C29.5075 15.9696 30.3849 15.1445 30.3728 14.1978C30.3606 13.2413 29.4984 12.4522 28.1717 12.2296ZM26.423 10.2878V7.23607C25.4318 7.54152 24.8595 8.19111 24.9081 8.89322C24.9582 9.62574 25.5229 10.1537 26.423 10.2878Z" fill="#0C5585"/>
</g>
<defs>
<clipPath id="clip0_3_469">
<rect width="41" height="39.0833" fill="white" transform="translate(0 0.541016)"/>
</clipPath>
</defs>
</svg>
